<?xml version="1.0" encoding="UTF-8" standalone="no"?>
<svg
   xmlns:serif="http://www.serif.com/"
   xmlns:dc="http://purl.org/dc/elements/1.1/"
   xmlns:cc="http://creativecommons.org/ns#"
   xmlns:rdf="http://www.w3.org/1999/02/22-rdf-syntax-ns#"
   xmlns:svg="http://www.w3.org/2000/svg"
   xmlns="http://www.w3.org/2000/svg"
   xmlns:sodipodi="http://sodipodi.sourceforge.net/DTD/sodipodi-0.dtd"
   xmlns:inkscape="http://www.inkscape.org/namespaces/inkscape"
   viewBox="0 0 742.06131 573.25909"
   stroke-miterlimit="1.5"
   version="1.1"
   id="svg5350"
   sodipodi:docname="file-d-attente.svg"
   width="742.06128"
   height="573.25909"
   style="clip-rule:evenodd;fill-rule:evenodd;stroke-linecap:round;stroke-linejoin:round;stroke-miterlimit:1.5"
   inkscape:version="0.92.3 (unknown)">
  <metadata
     id="metadata5356">
    <rdf:RDF>
      <cc:Work
         rdf:about="">
        <dc:format>image/svg+xml</dc:format>
        <dc:type
           rdf:resource="http://purl.org/dc/dcmitype/StillImage" />
        <dc:title></dc:title>
      </cc:Work>
    </rdf:RDF>
  </metadata>
  <defs
     id="defs5354">
    <clipPath
       clipPathUnits="userSpaceOnUse"
       id="clipPath5579">
      <rect
         style="fill:#ff0000;fill-opacity:1;stroke-width:0.9961943"
         id="rect5581"
         width="742.06128"
         height="578.27295"
         x="7.4806321e-06"
         y="0.52396226" />
    </clipPath>
  </defs>
  <sodipodi:namedview
     pagecolor="#ffffff"
     bordercolor="#666666"
     borderopacity="1"
     objecttolerance="10"
     gridtolerance="10"
     guidetolerance="10"
     inkscape:pageopacity="0"
     inkscape:pageshadow="2"
     inkscape:window-width="1920"
     inkscape:window-height="1054"
     id="namedview5352"
     showgrid="false"
     fit-margin-top="0"
     fit-margin-left="0"
     fit-margin-right="0"
     fit-margin-bottom="0"
     inkscape:zoom="0.59833333"
     inkscape:cx="287.52692"
     inkscape:cy="275.12243"
     inkscape:window-x="1920"
     inkscape:window-y="0"
     inkscape:window-maximized="1"
     inkscape:current-layer="svg5350" />
  <g
     id="g5577"
     clip-path="url(#clipPath5579)"
     transform="translate(-7.4806321e-6,-0.52396226)">
    <g
       transform="translate(-1068.5,-209.77739)"
       id="g5141"
       serif:id="city hall">
      <path
         style="fill:#fef7df"
         inkscape:connector-curvature="0"
         id="path4957"
         d="m 1315.29,388.96 h 755 v 344.471 h -755 z" />
      <path
         style="fill:#d8cca4"
         inkscape:connector-curvature="0"
         id="path4959"
         d="m 1315.29,388.96 h 755 v 10 h -755 z m 0,157.765 h 755 v 10 h -755 z" />
      <path
         style="fill:none;stroke:#205081;stroke-width:5"
         inkscape:connector-curvature="0"
         id="path4961"
         d="m 1315.29,388.96 h 755 v 344.471 h -755 z" />
      <path
         style="fill:#fef7df"
         inkscape:connector-curvature="0"
         id="path4963"
         d="m 1567.29,373.96 h 251 v 359.471 h -251 z" />
      <clipPath
         id="a">
        <path
           inkscape:connector-curvature="0"
           id="path4965"
           d="m 1567.29,373.96 h 251 v 359.471 h -251 z" />
      </clipPath>
      <g
         style="fill:#d8cca4"
         id="g4970"
         clip-path="url(#a)">
        <path
           inkscape:connector-curvature="0"
           id="path4968"
           d="m 1315.29,546.725 h 755 v 10 h -755 z m 0,-158 h 755 v 10 h -755 z" />
      </g>
      <path
         style="fill:none;stroke:#205081;stroke-width:3"
         inkscape:connector-curvature="0"
         id="path4972"
         d="m 1567.29,373.96 h 251 v 359.471 h -251 z" />
      <path
         style="fill:#ebeff3;stroke:#205081;stroke-width:5"
         inkscape:connector-curvature="0"
         id="path4974"
         d="m 1693.79,282.725 240,91.235 h -480 z" />
      <path
         style="fill:#d8cca4;stroke:#205081;stroke-width:3"
         inkscape:connector-curvature="0"
         id="path4976"
         d="m 1692.79,301.352 191,72.608 h -382 z" />
      <path
         style="fill:#fef7df"
         inkscape:connector-curvature="0"
         id="path4978"
         d="m 1692.79,312.377 162,61.583 h -324 z" />
      <path
         style="fill:#ebeff3;stroke:#205081;stroke-width:5"
         inkscape:connector-curvature="0"
         id="path4980"
         d="m 1305.79,673.696 h 774 v 59.735 h -774 z" />
      <g
         style="fill:#ffffff;stroke:#205081;stroke-width:5"
         id="g4984">
        <path
           inkscape:connector-curvature="0"
           id="path4982"
           d="m 1560.79,723.431 h 264 v 10 h -264 z m 7.85,-10 h 249.73 v 10 h -249.73 z m 7.13,-10 h 235.459 v 10 H 1575.77 Z m 7.14,-10 h 221.189 v 10 H 1582.91 Z m 7.13,-10 h 206.919 v 10 H 1590.04 Z m 7.14,-10 h 192.649 v 10 H 1597.18 Z" />
      </g>
      <path
         style="fill:#ebeff3;stroke:#205081;stroke-width:5"
         inkscape:connector-curvature="0"
         id="path4986"
         d="m 1301.29,373.96 h 789 v 15 h -789 z" />
      <g
         style="stroke:#205081;stroke-width:5"
         id="g5024"
         serif:id="windows middle">
        <path
           style="fill:#ffffff"
           inkscape:connector-curvature="0"
           id="path4988"
           d="m 1587.79,424.725 h 50 v 80 h -50 z" />
        <path
           style="fill:none"
           inkscape:connector-curvature="0"
           id="path4990"
           d="m 1612.79,424.725 v 80 m -25,-27 h 50 m -50,-26 h 50" />
        <g
           id="g4996"
           serif:id="windows">
          <path
             style="fill:#ffffff"
             inkscape:connector-curvature="0"
             id="path4992"
             d="m 1667.79,424.725 h 50 v 80 h -50 z" />
          <path
             style="fill:none"
             inkscape:connector-curvature="0"
             id="path4994"
             d="m 1692.79,424.725 v 80 m -25,-27 h 50 m -50,-26 h 50" />
        </g>
        <g
           id="g5002"
           serif:id="windows">
          <path
             style="fill:#ffffff"
             inkscape:connector-curvature="0"
             id="path4998"
             d="m 1747.79,424.725 h 50 v 80 h -50 z" />
          <path
             style="fill:none"
             inkscape:connector-curvature="0"
             id="path5000"
             d="m 1772.79,424.725 v 80 m -25,-27 h 50 m -50,-26 h 50" />
        </g>
        <g
           id="g5022">
          <g
             id="g5008"
             serif:id="windows">
            <path
               style="fill:#ffffff"
               inkscape:connector-curvature="0"
               id="path5004"
               d="m 1587.79,573.696 h 50 v 80 h -50 z" />
            <path
               style="fill:none"
               inkscape:connector-curvature="0"
               id="path5006"
               d="m 1612.79,573.696 v 80 m -25,-27 h 50 m -50,-26 h 50" />
          </g>
          <g
             id="g5014"
             serif:id="windows">
            <path
               style="fill:#ffffff"
               inkscape:connector-curvature="0"
               id="path5010"
               d="m 1667.79,573.696 h 50 v 80 h -50 z" />
            <path
               style="fill:none"
               inkscape:connector-curvature="0"
               id="path5012"
               d="m 1692.79,573.696 v 80 m -25,-27 h 50 m -50,-26 h 50" />
          </g>
          <g
             id="g5020"
             serif:id="windows">
            <path
               style="fill:#ffffff"
               inkscape:connector-curvature="0"
               id="path5016"
               d="m 1747.79,573.696 h 50 v 80 h -50 z" />
            <path
               style="fill:none"
               inkscape:connector-curvature="0"
               id="path5018"
               d="m 1772.79,573.696 v 80 m -25,-27 h 50 m -50,-26 h 50" />
          </g>
        </g>
      </g>
      <g
         style="stroke:#205081;stroke-width:5"
         id="g5064"
         serif:id="windows right">
        <g
           id="g5030"
           serif:id="windows">
          <path
             style="fill:#ffffff"
             inkscape:connector-curvature="0"
             id="path5026"
             d="m 1840.29,424.725 h 50 v 80 h -50 z" />
          <path
             style="fill:none"
             inkscape:connector-curvature="0"
             id="path5028"
             d="m 1865.29,424.725 v 80 m -25,-27 h 50 m -50,-26 h 50" />
        </g>
        <g
           id="g5036"
           serif:id="windows">
          <path
             style="fill:#ffffff"
             inkscape:connector-curvature="0"
             id="path5032"
             d="m 1920.29,424.725 h 50 v 80 h -50 z" />
          <path
             style="fill:none"
             inkscape:connector-curvature="0"
             id="path5034"
             d="m 1945.29,424.725 v 80 m -25,-27 h 50 m -50,-26 h 50" />
        </g>
        <g
           id="g5042"
           serif:id="windows">
          <path
             style="fill:#ffffff"
             inkscape:connector-curvature="0"
             id="path5038"
             d="m 2000.29,424.725 h 50 v 80 h -50 z" />
          <path
             style="fill:none"
             inkscape:connector-curvature="0"
             id="path5040"
             d="m 2025.29,424.725 v 80 m -25,-27 h 50 m -50,-26 h 50" />
        </g>
        <g
           id="g5062">
          <g
             id="g5048"
             serif:id="windows">
            <path
               style="fill:#ffffff"
               inkscape:connector-curvature="0"
               id="path5044"
               d="m 1840.29,573.696 h 50 v 80 h -50 z" />
            <path
               style="fill:none"
               inkscape:connector-curvature="0"
               id="path5046"
               d="m 1865.29,573.696 v 80 m -25,-27 h 50 m -50,-26 h 50" />
          </g>
          <g
             id="g5054"
             serif:id="windows">
            <path
               style="fill:#ffffff"
               inkscape:connector-curvature="0"
               id="path5050"
               d="m 1920.29,573.696 h 50 v 80 h -50 z" />
            <path
               style="fill:none"
               inkscape:connector-curvature="0"
               id="path5052"
               d="m 1945.29,573.696 v 80 m -25,-27 h 50 m -50,-26 h 50" />
          </g>
          <g
             id="g5060"
             serif:id="windows">
            <path
               style="fill:#ffffff"
               inkscape:connector-curvature="0"
               id="path5056"
               d="m 2000.29,573.696 h 50 v 80 h -50 z" />
            <path
               style="fill:none"
               inkscape:connector-curvature="0"
               id="path5058"
               d="m 2025.29,573.696 v 80 m -25,-27 h 50 m -50,-26 h 50" />
          </g>
        </g>
      </g>
      <g
         style="stroke:#205081;stroke-width:5"
         id="g5104"
         serif:id="windows left">
        <g
           id="g5070"
           serif:id="windows">
          <path
             style="fill:#ffffff"
             inkscape:connector-curvature="0"
             id="path5066"
             d="m 1335.29,424.725 h 50 v 80 h -50 z" />
          <path
             style="fill:none"
             inkscape:connector-curvature="0"
             id="path5068"
             d="m 1360.29,424.725 v 80 m -25,-27 h 50 m -50,-26 h 50" />
        </g>
        <g
           id="g5076"
           serif:id="windows">
          <path
             style="fill:#ffffff"
             inkscape:connector-curvature="0"
             id="path5072"
             d="m 1415.29,424.725 h 50 v 80 h -50 z" />
          <path
             style="fill:none"
             inkscape:connector-curvature="0"
             id="path5074"
             d="m 1440.29,424.725 v 80 m -25,-27 h 50 m -50,-26 h 50" />
        </g>
        <g
           id="g5082"
           serif:id="windows">
          <path
             style="fill:#ffffff"
             inkscape:connector-curvature="0"
             id="path5078"
             d="m 1495.29,424.725 h 50 v 80 h -50 z" />
          <path
             style="fill:none"
             inkscape:connector-curvature="0"
             id="path5080"
             d="m 1520.29,424.725 v 80 m -25,-27 h 50 m -50,-26 h 50" />
        </g>
        <g
           id="g5102">
          <g
             id="g5088"
             serif:id="windows">
            <path
               style="fill:#ffffff"
               inkscape:connector-curvature="0"
               id="path5084"
               d="m 1335.29,573.696 h 50 v 80 h -50 z" />
            <path
               style="fill:none"
               inkscape:connector-curvature="0"
               id="path5086"
               d="m 1360.29,573.696 v 80 m -25,-27 h 50 m -50,-26 h 50" />
          </g>
          <g
             id="g5094"
             serif:id="windows">
            <path
               style="fill:#ffffff"
               inkscape:connector-curvature="0"
               id="path5090"
               d="m 1415.29,573.696 h 50 v 80 h -50 z" />
            <path
               style="fill:none"
               inkscape:connector-curvature="0"
               id="path5092"
               d="m 1440.29,573.696 v 80 m -25,-27 h 50 m -50,-26 h 50" />
          </g>
          <g
             id="g5100"
             serif:id="windows">
            <path
               style="fill:#ffffff"
               inkscape:connector-curvature="0"
               id="path5096"
               d="m 1495.29,573.696 h 50 v 80 h -50 z" />
            <path
               style="fill:none"
               inkscape:connector-curvature="0"
               id="path5098"
               d="m 1520.29,573.696 v 80 m -25,-27 h 50 m -50,-26 h 50" />
          </g>
        </g>
      </g>
      <path
         style="fill:#003e64;stroke:#205081;stroke-width:5"
         inkscape:connector-curvature="0"
         id="path5106"
         d="m 1660.79,573.696 h 64 v 100 h -64 z" />
      <path
         style="fill:#adb9c9;stroke:#205081;stroke-width:3"
         inkscape:connector-curvature="0"
         id="path5108"
         d="m 1312.79,535.725 h 760 v 10 h -760 z" />
      <g
         style="stroke:#205081;stroke-width:5"
         id="g5120">
        <path
           style="fill:#9dbf15"
           inkscape:connector-curvature="0"
           id="path5110"
           d="m 1286.99,710.625 h 7.57 a 5.705,5.705 0 0 1 -5.703,-5.701 5.705,5.705 0 0 1 5.703,-5.701 h 17.506 a 5.706,5.706 0 0 1 -5.703,-5.702 5.705,5.705 0 0 1 5.703,-5.701 h 13.423 a 5.705,5.705 0 0 1 5.703,5.701 5.705,5.705 0 0 1 -5.703,5.702 h 10.341 a 5.704,5.704 0 0 1 5.703,5.701 5.704,5.704 0 0 1 -5.703,5.701 h 7.57 a 5.705,5.705 0 0 1 5.703,5.702 5.705,5.705 0 0 1 -5.703,5.701 h -7.57 a 5.705,5.705 0 0 1 5.703,5.702 5.705,5.705 0 0 1 -5.703,5.701 h -41.27 a 5.705,5.705 0 0 1 -5.703,-5.701 5.706,5.706 0 0 1 5.703,-5.702 h -7.57 a 5.705,5.705 0 0 1 -5.703,-5.701 5.706,5.706 0 0 1 5.703,-5.702 z m 650.5,0 h 7.57 a 5.705,5.705 0 0 1 -5.703,-5.701 5.705,5.705 0 0 1 5.703,-5.701 h 17.506 a 5.706,5.706 0 0 1 -5.703,-5.702 5.705,5.705 0 0 1 5.703,-5.701 h 13.423 a 5.705,5.705 0 0 1 5.703,5.701 5.705,5.705 0 0 1 -5.703,5.702 h 10.341 a 5.704,5.704 0 0 1 5.703,5.701 5.704,5.704 0 0 1 -5.703,5.701 h 7.57 a 5.705,5.705 0 0 1 5.703,5.702 5.705,5.705 0 0 1 -5.703,5.701 h -7.57 a 5.705,5.705 0 0 1 5.703,5.702 5.705,5.705 0 0 1 -5.703,5.701 h -41.27 a 5.705,5.705 0 0 1 -5.703,-5.701 5.706,5.706 0 0 1 5.703,-5.702 h -7.57 a 5.705,5.705 0 0 1 -5.703,-5.701 5.706,5.706 0 0 1 5.703,-5.702 z m -107,0 h 7.57 a 5.705,5.705 0 0 1 -5.703,-5.701 5.705,5.705 0 0 1 5.703,-5.701 h 17.506 a 5.706,5.706 0 0 1 -5.703,-5.702 5.705,5.705 0 0 1 5.703,-5.701 h 13.423 a 5.705,5.705 0 0 1 5.703,5.701 5.705,5.705 0 0 1 -5.703,5.702 h 10.341 a 5.704,5.704 0 0 1 5.703,5.701 5.704,5.704 0 0 1 -5.703,5.701 h 7.57 a 5.705,5.705 0 0 1 5.703,5.702 5.705,5.705 0 0 1 -5.703,5.701 h -7.57 a 5.705,5.705 0 0 1 5.703,5.702 5.705,5.705 0 0 1 -5.703,5.701 h -41.27 a 5.705,5.705 0 0 1 -5.703,-5.701 5.706,5.706 0 0 1 5.703,-5.702 h -7.57 a 5.705,5.705 0 0 1 -5.703,-5.701 5.706,5.706 0 0 1 5.703,-5.702 z m -439.5,0 h 7.57 a 5.705,5.705 0 0 1 -5.703,-5.701 5.705,5.705 0 0 1 5.703,-5.701 h 17.506 a 5.706,5.706 0 0 1 -5.703,-5.702 5.705,5.705 0 0 1 5.703,-5.701 h 13.423 a 5.705,5.705 0 0 1 5.703,5.701 5.705,5.705 0 0 1 -5.703,5.702 h 10.341 a 5.704,5.704 0 0 1 5.703,5.701 5.704,5.704 0 0 1 -5.703,5.701 h 7.57 a 5.705,5.705 0 0 1 5.703,5.702 5.705,5.705 0 0 1 -5.703,5.701 h -7.57 a 5.705,5.705 0 0 1 5.703,5.702 5.705,5.705 0 0 1 -5.703,5.701 h -41.27 a 5.705,5.705 0 0 1 -5.703,-5.701 5.706,5.706 0 0 1 5.703,-5.702 h -7.57 a 5.705,5.705 0 0 1 -5.703,-5.701 5.706,5.706 0 0 1 5.703,-5.702 z m 107.69,0 h 7.57 a 5.705,5.705 0 0 1 -5.703,-5.701 5.705,5.705 0 0 1 5.703,-5.701 h 17.506 a 5.706,5.706 0 0 1 -5.703,-5.702 5.705,5.705 0 0 1 5.703,-5.701 h 13.423 a 5.705,5.705 0 0 1 5.703,5.701 5.705,5.705 0 0 1 -5.703,5.702 h 10.341 a 5.705,5.705 0 0 1 5.703,5.701 5.705,5.705 0 0 1 -5.703,5.701 h 7.57 a 5.705,5.705 0 0 1 5.703,5.702 5.705,5.705 0 0 1 -5.703,5.701 h -7.57 a 5.706,5.706 0 0 1 5.703,5.702 5.705,5.705 0 0 1 -5.703,5.701 h -41.27 a 5.705,5.705 0 0 1 -5.703,-5.701 5.706,5.706 0 0 1 5.703,-5.702 h -7.57 a 5.704,5.704 0 0 1 -5.703,-5.701 5.705,5.705 0 0 1 5.703,-5.702 z m 542.81,0 h 7.57 a 5.705,5.705 0 0 1 -5.703,-5.701 5.705,5.705 0 0 1 5.703,-5.701 h 17.506 a 5.706,5.706 0 0 1 -5.703,-5.702 5.705,5.705 0 0 1 5.703,-5.701 h 13.423 a 5.705,5.705 0 0 1 5.703,5.701 5.705,5.705 0 0 1 -5.703,5.702 h 10.341 a 5.704,5.704 0 0 1 5.703,5.701 5.704,5.704 0 0 1 -5.703,5.701 h 7.57 a 5.705,5.705 0 0 1 5.703,5.702 5.705,5.705 0 0 1 -5.703,5.701 h -7.57 a 5.705,5.705 0 0 1 5.703,5.702 5.705,5.705 0 0 1 -5.703,5.701 h -41.27 a 5.705,5.705 0 0 1 -5.703,-5.701 5.706,5.706 0 0 1 5.703,-5.702 h -7.57 a 5.705,5.705 0 0 1 -5.703,-5.701 5.706,5.706 0 0 1 5.703,-5.702 z M 2165.7,588.597 c 0,0 -41,60.985 -41,87.122 0,6.869 18.372,12.446 41,12.446 22.629,0 41,-5.577 41,-12.446 0,-26.137 -41,-87.122 -41,-87.122 z" />
        <path
           style="fill:none"
           inkscape:connector-curvature="0"
           id="path5112"
           d="m 2147.32,660.426 18.327,12.579 v -21.5 l 16.06,-13.124 m -16.057,95.05 c 0.108,-0.373 0,-105.259 0,-105.259" />
        <g
           id="g5118">
          <path
             style="fill:#9dbf15"
             inkscape:connector-curvature="0"
             id="path5114"
             d="m 1216.2,588.597 c 0,0 -41,60.985 -41,87.122 0,6.869 18.372,12.446 41,12.446 22.629,0 41,-5.577 41,-12.446 0,-26.137 -41,-87.122 -41,-87.122 z" />
          <path
             style="fill:none"
             inkscape:connector-curvature="0"
             id="path5116"
             d="m 1197.82,660.426 18.327,12.579 v -21.5 l 16.06,-13.124 m -16.057,95.05 c 0.108,-0.373 0,-105.259 0,-105.259" />
        </g>
      </g>
      <g
         style="stroke:#205081;stroke-width:5"
         id="g5126">
        <ellipse
           style="fill:#ffffff"
           id="ellipse5122"
           ry="15"
           rx="15.017"
           cy="340.65601"
           cx="1692.79" />
        <path
           style="fill:none"
           inkscape:connector-curvature="0"
           id="path5124"
           d="m 1687.37,340.656 h 5.422 m 0,0 4.578,-6.137" />
      </g>
      <path
         style="fill:#ffffff"
         inkscape:connector-curvature="0"
         id="path5128"
         d="m 1693.78,212.313 h 51.011 v 27 h -51.011 z" />
      <clipPath
         id="b">
        <path
           inkscape:connector-curvature="0"
           id="path5130"
           d="m 1693.78,212.313 h 51.011 v 27 h -51.011 z" />
      </clipPath>
      <g
         id="g5137"
         clip-path="url(#b)">
        <path
           style="fill:#0081d5"
           inkscape:connector-curvature="0"
           id="path5133"
           d="m 1693.78,212.313 h 17.937 v 25.064 h -17.937 z" />
        <path
           style="fill:#d1335b"
           inkscape:connector-curvature="0"
           id="path5135"
           d="m 1726.85,212.313 h 17.937 v 25.064 h -17.937 z" />
      </g>
      <path
         style="fill:none;stroke:#205081;stroke-width:5"
         inkscape:connector-curvature="0"
         id="path5139"
         d="m 1693.78,212.313 h 51.011 v 27 h -51.011 z m 0,0 v 70.746" />
    </g>
    <g
       transform="translate(-1068.5,-209.77739)"
       style="stroke:#205081;stroke-width:5"
       id="g5147"
       serif:id="bushes">
      <path
         style="fill:#9dbf15"
         inkscape:connector-curvature="0"
         id="path5143"
         d="m 1112,615.748 c 0,0 -41,60.985 -41,87.121 0,6.869 18.371,12.446 41,12.446 22.629,0 41,-5.577 41,-12.446 0,-26.136 -41,-87.121 -41,-87.121 z" />
      <path
         style="fill:none"
         inkscape:connector-curvature="0"
         id="path5145"
         d="m 1093.62,687.577 18.327,12.579 v -21.501 l 16.06,-13.123 m -16.057,95.05 c 0.108,-0.374 0,-105.26 0,-105.26" />
    </g>
    <path
       style="fill:#ffffff;stroke:#205081;stroke-width:5"
       inkscape:connector-curvature="0"
       id="path5149"
       d="m 578.59,471.84261 c 1.766,-3.914 2.696,-8.354 2.696,-12.874 0,-14.209 -9.018,-25.746 -20.125,-25.746 -11.106,0 -20.124,11.537 -20.124,25.746 0,4.52 0.93,8.96 2.696,12.874 z" />
    <path
       style="fill:#00aa54;stroke:#205081;stroke-width:5"
       inkscape:connector-curvature="0"
       id="path5151"
       d="m 544.62,470.09261 a 12.564,12.564 0 0 1 -0.078,-0.257 l 33.23,-0.018 -0.083,0.275 h 0.595 v 33.13 h -9.998 v -23.565 a 19.451,19.451 0 0 1 -7.123,1.338 19.44,19.44 0 0 1 -7.129,-1.333 v 23.56 h -9.998 v -33.13 z" />
    <circle
       style="fill:#b19b6f;stroke:#205081;stroke-width:5"
       id="circle5153"
       r="25"
       cy="411.2226"
       cx="561.16003" />
    <circle
       style="fill:#205081"
       id="circle5155"
       r="2.5"
       cy="412.7226"
       cx="574.66003" />
    <circle
       style="fill:#205081"
       id="circle5157"
       r="2.5"
       cy="412.7226"
       cx="553.66003" />
    <path
       style="fill:none;stroke:#205081;stroke-width:5"
       inkscape:connector-curvature="0"
       id="path5159"
       d="m 544.16,407.30161 c 0.275,-0.178 12,0 12,0 0,0 -12.275,0.178 -12,0 z m 23,-0.079 h 13" />
    <ellipse
       style="fill:#9a6e4d"
       id="ellipse5161"
       ry="3"
       rx="6.25"
       cy="418.2226"
       cx="567.16003" />
    <path
       style="fill:none;stroke:#205081;stroke-width:5"
       inkscape:connector-curvature="0"
       id="path5163"
       d="m 576.04,440.22261 c 32.353,10.195 4.174,23.684 4.174,23.684 m -33.174,-23.684 c -37.863,8.742 -6.001,23.684 -6.001,23.684" />
    <g
       transform="translate(-1068.5,-209.77739)"
       id="g5185">
      <path
         style="fill:#afded8;stroke:#205081;stroke-width:5"
         inkscape:connector-curvature="0"
         id="path5165"
         serif:id="body"
         d="m 1365.49,747.62 c 1.503,-3.914 2.294,-8.354 2.294,-12.874 0,-14.209 -7.673,-25.746 -17.124,-25.746 -9.45,0 -17.123,11.537 -17.123,25.746 0,4.52 0.791,8.96 2.294,12.874 z" />
      <path
         style="fill:#007caa;stroke:#205081;stroke-width:5"
         inkscape:connector-curvature="0"
         id="path5167"
         d="m 1336.05,745.87 a 12.22,12.22 0 0 1 -0.069,-0.257 l 29.348,-0.018 a 9.307,9.307 0 0 1 -0.073,0.275 h 0.526 V 779 h -8.83 v -23.565 a 15.434,15.434 0 0 1 -6.291,1.338 15.422,15.422 0 0 1 -6.297,-1.333 V 779 h -8.83 v -33.13 z" />
      <g
         id="g5179"
         serif:id="head">
        <circle
           style="fill:#e2d7c1;stroke:#205081;stroke-width:5"
           id="circle5169"
           r="25"
           cy="687"
           cx="1350.66" />
        <circle
           style="fill:#205081"
           id="circle5171"
           r="2.5"
           cy="688.5"
           cx="1366.16" />
        <circle
           style="fill:#205081"
           id="circle5173"
           r="2.5"
           cy="688.5"
           cx="1351.16" />
        <path
           style="fill:none;stroke:#205081;stroke-width:5"
           inkscape:connector-curvature="0"
           id="path5175"
           d="m 1341.66,683.079 c 0.275,-0.178 12,0 12,0 0,0 -12.275,0.178 -12,0 z m 21,-0.079 h 7" />
        <path
           style="fill:#9a6e4d"
           inkscape:connector-curvature="0"
           id="path5177"
           d="m 1362.66,692.137 c 0,2.622 -1.344,4.75 -3,4.75 -1.655,0 -3,-2.128 -3,-4.75 0,-2.621 1.345,-4.75 3,-4.75 1.656,0 3,2.129 3,4.75 z" />
      </g>
      <path
         style="fill:#997b26;stroke:#205081;stroke-width:5"
         inkscape:connector-curvature="0"
         id="path5181"
         d="m 1331.48,700.637 c -11.302,-4.028 -14.122,-14.5 -13.701,-21.259 0.806,-12.958 13.546,-26.313 29.746,-25.305 16.21,1.01 28.696,12.339 27.889,25.305 l -33.753,-7.304 z" />
      <path
         style="fill:none;stroke:#205081;stroke-width:5"
         inkscape:connector-curvature="0"
         id="path5183"
         d="m 1362.54,716 c 32.353,10.195 4.174,23.684 4.174,23.684 M 1338.54,716 c -17.17,11.045 -10.877,29.684 -10.877,29.684" />
    </g>
    <g
       transform="translate(-1068.5,-209.77739)"
       id="g5209">
      <path
         style="fill:#e76080;stroke:#205081;stroke-width:5"
         inkscape:connector-curvature="0"
         id="path5187"
         serif:id="body"
         d="m 1264.92,749.482 c 0.57,-2.471 0.861,-5.076 0.861,-7.702 0,-12.573 -6.552,-22.78 -14.622,-22.78 -8.071,0 -14.623,10.207 -14.623,22.78 0,2.626 0.291,5.231 0.861,7.702 z" />
      <path
         style="fill:#007caa;stroke:#205081;stroke-width:5"
         inkscape:connector-curvature="0"
         id="path5189"
         d="m 1237.05,750.357 a 7.196,7.196 0 0 1 -0.069,-0.222 l 29.348,-0.015 a 6.485,6.485 0 0 1 -0.073,0.237 h 0.526 V 779 h -8.83 v -20.373 a 17.501,17.501 0 0 1 -6.291,1.157 17.506,17.506 0 0 1 -6.297,-1.152 V 779 h -8.83 v -28.643 z" />
      <g
         id="g5205"
         serif:id="head">
        <ellipse
           style="fill:#dec68f;stroke:#205081;stroke-width:5"
           id="ellipse5191"
           ry="22.813999"
           rx="23.638"
           cy="701.96802"
           cx="1253.09" />
        <ellipse
           style="fill:#205081"
           id="ellipse5193"
           ry="3.6500001"
           rx="2.3640001"
           cy="704.70599"
           cx="1267.75" />
        <ellipse
           style="fill:#205081"
           id="ellipse5195"
           ry="3.6500001"
           rx="2.3640001"
           cy="704.70599"
           cx="1253.5601" />
        <path
           style="fill:none;stroke:#205081;stroke-width:5"
           inkscape:connector-curvature="0"
           id="path5197"
           d="m 1267.27,698.318 h 2.837" />
        <path
           style="fill:#d1ac91"
           inkscape:connector-curvature="0"
           id="path5199"
           d="m 1264.44,708.761 c 0,1.23 -0.902,2.229 -2.013,2.229 -1.111,0 -2.013,-0.999 -2.013,-2.229 0,-1.231 0.902,-2.23 2.013,-2.23 1.111,0 2.013,0.999 2.013,2.23 z" />
        <path
           style="fill:none;stroke:#205081;stroke-width:5"
           inkscape:connector-curvature="0"
           id="path5201"
           d="m 1253.09,698.318 h -3.848" />
        <path
           style="fill:#476087;stroke:#205081;stroke-width:5"
           inkscape:connector-curvature="0"
           id="path5203"
           d="m 1234.95,714.413 c -10.687,-3.676 -13.354,-13.233 -12.956,-19.401 0.763,-11.824 12.809,-24.012 28.126,-23.092 15.327,0.921 27.133,11.26 26.37,23.092 l -31.915,-6.665 z m -22.14,25.252 c 0,0 16.283,-10.126 21.206,-16.056 a 5.82,5.82 0 0 0 -0.921,-8.377 c -2.647,-2.047 -6.532,-1.617 -8.671,0.959 -4.923,5.929 -11.614,23.474 -11.614,23.474 z" />
      </g>
      <path
         style="fill:none;stroke:#205081;stroke-width:5"
         inkscape:connector-curvature="0"
         id="path5207"
         d="m 1261.78,725 c 15.202,15.551 23.929,18.684 23.929,18.684 M 1241.54,725 c -17.17,11.045 -10.877,29.684 -10.877,29.684" />
    </g>
    <g
       transform="translate(-1068.5,-209.77739)"
       id="g5231">
      <path
         style="fill:#467cbc;stroke:#205081;stroke-width:5"
         inkscape:connector-curvature="0"
         id="path5211"
         serif:id="body"
         d="m 1616.33,722.473 a 23.514,23.514 0 0 0 2.964,-11.449 c 0,-12.638 -9.913,-22.899 -22.124,-22.899 -12.211,0 -22.124,10.261 -22.124,22.899 0,4.02 1.022,7.968 2.964,11.449 z" />
      <path
         style="fill:#0061aa;stroke:#205081;stroke-width:5"
         inkscape:connector-curvature="0"
         id="path5213"
         d="m 1577.74,719.954 a 6.768,6.768 0 0 1 -0.091,-0.219 l 39.051,-0.015 c -0.032,0.078 -0.064,0.156 -0.098,0.234 h 0.699 v 28.171 h -11.749 v -20.038 c -2.566,0.733 -5.407,1.137 -8.371,1.138 -2.966,0.002 -5.809,-0.401 -8.378,-1.133 v 20.033 h -11.749 v -28.171 z" />
      <g
         id="g5225"
         serif:id="head">
        <ellipse
           style="fill:#d9ceb6;stroke:#205081;stroke-width:5"
           id="ellipse5215"
           ry="22"
           rx="25"
           cy="669.125"
           cx="1597.17" />
        <circle
           style="fill:#205081"
           id="circle5217"
           r="2.5"
           cy="669.625"
           cx="1610.67" />
        <circle
           style="fill:#205081"
           id="circle5219"
           r="2.5"
           cy="669.625"
           cx="1589.67" />
        <path
           style="fill:none;stroke:#205081;stroke-width:5"
           inkscape:connector-curvature="0"
           id="path5221"
           d="m 1581.28,662.085 c 0.279,0.004 11.819,2.08 11.819,2.08 0,0 -12.097,-2.083 -11.819,-2.08 z m 23.89,1.579 10,-1.539" />
        <path
           style="fill:#e39b64"
           inkscape:connector-curvature="0"
           id="path5223"
           d="m 1603.17,672.875 c 0,2.07 -1.344,3.75 -3,3.75 -1.656,0 -3,-1.68 -3,-3.75 0,-2.069 1.344,-3.75 3,-3.75 1.656,0 3,1.681 3,3.75 z" />
      </g>
      <path
         style="fill:none;stroke:#205081;stroke-width:5"
         inkscape:connector-curvature="0"
         id="path5227"
         d="m 1582.2,693.417 c 0,0 -26.07,19.993 -4,15.392 14.019,-2.923 27.018,-11.795 22.852,-7.684" />
      <path
         style="fill:none;stroke:#205081;stroke-width:5"
         inkscape:connector-curvature="0"
         id="path5229"
         d="m 1609.27,693.417 c 14.057,1.31 26.986,23.523 0,12.174 -13.192,-5.548 -17.378,-4.174 -17.378,-4.174" />
    </g>
    <g
       transform="translate(-1068.5,-209.77739)"
       id="g5253">
      <path
         style="fill:#ffffff;stroke:#205081;stroke-width:5"
         inkscape:connector-curvature="0"
         id="path5233"
         serif:id="body"
         d="m 1196.85,748.776 a 27.718,27.718 0 0 0 3.492,-13.489 c 0,-14.891 -11.68,-26.98 -26.067,-26.98 -14.387,0 -26.068,12.089 -26.068,26.98 0,4.735 1.205,9.388 3.493,13.489 z" />
      <path
         style="fill:#0061aa;stroke:#205081;stroke-width:5"
         inkscape:connector-curvature="0"
         id="path5235"
         d="m 1151.37,745.808 a 9.384,9.384 0 0 1 -0.107,-0.258 l 46.01,-0.018 c -0.036,0.093 -0.075,0.184 -0.114,0.276 h 0.824 V 779 h -13.844 v -23.609 c -3.023,0.863 -6.371,1.339 -9.863,1.341 -3.494,10e-4 -6.845,-0.473 -9.871,-1.336 V 779 h -13.843 v -33.192 z" />
      <g
         id="g5249"
         serif:id="head">
        <ellipse
           style="fill:#d9ceb6;stroke:#205081;stroke-width:5"
           id="ellipse5237"
           ry="25.921"
           rx="29.455"
           cy="685.92102"
           cx="1174.27" />
        <circle
           style="fill:#205081"
           id="circle5239"
           r="2.9460001"
           cy="686.51001"
           cx="1190.1801" />
        <circle
           style="fill:#205081"
           id="circle5241"
           r="2.9460001"
           cy="686.51001"
           cx="1168.25" />
        <path
           style="fill:none;stroke:#205081;stroke-width:5"
           inkscape:connector-curvature="0"
           id="path5243"
           d="m 1158.34,680.033 c 0.31,-0.106 13.939,-2.365 13.939,-2.365 0,0 -14.25,2.471 -13.939,2.365 z m 25.36,-0.547 11.783,-1.813" />
        <ellipse
           style="fill:#e39b64"
           id="ellipse5245"
           ry="3.5350001"
           rx="4.9130001"
           cy="690.33899"
           cx="1181.0601" />
        <path
           style="fill:#a3a3a3;stroke:#205081;stroke-width:5"
           inkscape:connector-curvature="0"
           id="path5247"
           d="m 1150.84,679.445 a 2.58,2.58 0 0 0 -2.579,-2.579 h -5.157 a 2.58,2.58 0 0 0 -2.579,2.579 v 8.897 a 2.58,2.58 0 0 0 2.579,2.579 h 5.157 a 2.58,2.58 0 0 0 2.579,-2.579 z m 57.17,-0.703 a 1.877,1.877 0 0 0 -1.876,-1.876 h -3.752 a 1.878,1.878 0 0 0 -1.877,1.876 v 10.303 c 0,1.036 0.841,1.876 1.877,1.876 h 3.752 c 1.035,0 1.876,-0.84 1.876,-1.876 z" />
      </g>
      <path
         style="fill:none;stroke:#205081;stroke-width:5"
         inkscape:connector-curvature="0"
         id="path5251"
         d="m 1156.63,714.541 c 0,0 -34.589,21.975 -4.713,33.128 m 40.353,-33.128 c 14.754,11.085 22.879,21.895 4.482,33.128" />
    </g>
    <g
       transform="translate(-1068.5,-209.77739)"
       id="g5277">
      <g
         style="stroke:#205081;stroke-width:5"
         id="g5259"
         serif:id="body">
        <path
           style="fill:#dfc48a"
           inkscape:connector-curvature="0"
           id="path5255"
           d="m 1514.04,744.146 a 19.426,19.426 0 0 1 -0.067,-0.258 l 28.378,-0.017 c -0.022,0.092 -0.046,0.183 -0.07,0.275 h 0.508 v 33.13 h -8.538 v -23.565 a 14.506,14.506 0 0 1 -6.083,1.338 14.496,14.496 0 0 1 -6.089,-1.333 v 23.56 h -8.538 v -33.13 z" />
        <path
           style="fill:#e15c5c"
           inkscape:connector-curvature="0"
           id="path5257"
           d="m 1545.22,765.392 c 1.686,-5.228 2.571,-11.122 2.571,-17.116 0,-19.317 -9.018,-35 -20.125,-35 -11.106,0 -20.124,15.683 -20.124,35 0,5.994 0.885,11.888 2.571,17.116 z" />
      </g>
      <g
         id="g5273"
         serif:id="head">
        <circle
           style="fill:#dfc48a;stroke:#205081;stroke-width:5"
           id="circle5261"
           r="25"
           cy="691.276"
           cx="1527.66" />
        <ellipse
           style="fill:#205081"
           id="ellipse5263"
           ry="3.5"
           rx="2.5"
           cy="693.776"
           cx="1523.16" />
        <ellipse
           style="fill:#205081"
           id="ellipse5265"
           ry="3.5"
           rx="2.5"
           cy="693.776"
           cx="1538.16" />
        <path
           style="fill:none;stroke:#205081;stroke-width:5"
           inkscape:connector-curvature="0"
           id="path5267"
           d="m 1518.66,686.276 h 1.026 z m 18,0 h -0.861 5.861" />
        <ellipse
           style="fill:#9a6e4d"
           id="ellipse5269"
           ry="3"
           rx="3.25"
           cy="698.276"
           cx="1531.66" />
        <path
           style="fill:#b08731;stroke:#205081;stroke-width:5"
           inkscape:connector-curvature="0"
           id="path5271"
           d="m 1528.98,654.798 a 7.482,7.482 0 0 1 5.401,-2.298 7.504,7.504 0 0 1 6.925,10.383 7.504,7.504 0 0 1 11.032,6.617 v 0.013 a 7.504,7.504 0 0 1 7.951,7.487 7.477,7.477 0 0 1 -2.254,5.358 7.507,7.507 0 0 1 5.206,7.142 7.494,7.494 0 0 1 -3.263,6.188 6.28,6.28 0 0 1 -3.587,9.075 5.276,5.276 0 0 1 -4.876,7.285 5.276,5.276 0 0 1 -5.274,-5.274 5.276,5.276 0 0 1 2.924,-4.722 6.244,6.244 0 0 1 -0.924,-3.278 c 0,-1.713 0.687,-3.266 1.802,-4.399 a 7.469,7.469 0 0 1 -1.802,-4.875 c 0,-2.098 0.863,-3.996 2.254,-5.358 A 7.507,7.507 0 0 1 1545.289,677 v -0.013 a 7.496,7.496 0 0 1 -6.621,-3.223 7.492,7.492 0 0 1 -6.169,3.236 7.492,7.492 0 0 1 -6.169,-3.236 7.496,7.496 0 0 1 -6.17,3.236 7.492,7.492 0 0 1 -6.169,-3.236 7.51,7.51 0 0 1 -4.342,3.011 c 0.33,0.845 0.511,1.764 0.511,2.725 a 7.475,7.475 0 0 1 -2.015,5.114 7.488,7.488 0 0 1 2.854,5.886 7.491,7.491 0 0 1 -2.948,5.96 7.471,7.471 0 0 1 1.942,5.353 5.506,5.506 0 0 1 3.667,5.187 c 0,3.036 -2.464,5.5 -5.5,5.5 a 5.505,5.505 0 0 1 -5.131,-3.518 7.504,7.504 0 0 1 -8.03,-7.482 c 0,-1.715 0.577,-3.296 1.547,-4.56 a 7.506,7.506 0 0 1 -6.547,-7.44 7.506,7.506 0 0 1 5.673,-7.275 7.507,7.507 0 0 1 5.161,-10 7.504,7.504 0 0 1 6.989,-10.225 7.46,7.46 0 0 1 4.165,1.264 7.504,7.504 0 0 1 7.394,-8.764 c 1.366,0 2.647,0.366 3.75,1.005 a 7.458,7.458 0 0 1 3.75,-1.005 c 0.729,0 1.433,0.104 2.099,0.298 z" />
      </g>
      <path
         style="fill:none;stroke:#205081;stroke-width:5"
         inkscape:connector-curvature="0"
         id="path5275"
         d="m 1541.54,722.276 c 17.786,12.347 2.295,28.684 2.295,28.684 m -30.245,-29.278 c -20.616,13.437 0.311,28.897 0.311,28.897" />
    </g>
    <g
       transform="translate(-1068.5,-209.77739)"
       id="g5301">
      <g
         style="stroke:#205081;stroke-width:5"
         id="g5283"
         serif:id="body">
        <path
           style="fill:#dfc48a"
           inkscape:connector-curvature="0"
           id="path5279"
           d="m 1440.22,749.06 -0.058,-0.225 24.814,-0.016 c -0.02,0.081 -0.04,0.161 -0.062,0.241 h 0.445 v 28.969 h -7.466 v -20.605 a 12.684,12.684 0 0 1 -5.319,1.17 12.684,12.684 0 0 1 -5.324,-1.165 v 20.6 h -7.466 V 749.06 Z" />
        <path
           style="fill:#776483"
           inkscape:connector-curvature="0"
           id="path5281"
           d="m 1467.48,767.638 c 1.474,-4.572 2.248,-9.725 2.248,-14.967 0,-16.891 -7.885,-30.604 -17.597,-30.604 -9.712,0 -17.597,13.713 -17.597,30.604 0,5.242 0.774,10.395 2.248,14.967 z" />
      </g>
      <g
         id="g5297"
         serif:id="head">
        <circle
           style="fill:#dfc48a;stroke:#205081;stroke-width:5"
           id="circle5285"
           r="21.860001"
           cy="702.83002"
           cx="1452.13" />
        <ellipse
           style="fill:#205081"
           id="ellipse5287"
           ry="3.0599999"
           rx="2.1860001"
           cy="705.01599"
           cx="1445.5699" />
        <ellipse
           style="fill:#205081"
           id="ellipse5289"
           ry="3.0599999"
           rx="2.1860001"
           cy="705.01599"
           cx="1463.9301" />
        <path
           style="fill:none;stroke:#205081;stroke-width:5"
           inkscape:connector-curvature="0"
           id="path5291"
           d="m 1441.63,698.458 z m 20.12,0 h 4.372" />
        <ellipse
           style="fill:#d3874e"
           id="ellipse5293"
           ry="2.6229999"
           rx="2.842"
           cy="708.95099"
           cx="1455.63" />
        <path
           style="fill:#e1be5c;stroke:#205081;stroke-width:5"
           inkscape:connector-curvature="0"
           id="path5295"
           d="m 1438.87,720.067 h -10.125 c -2.37,-4.902 -3.617,-10.463 -3.617,-16.124 0,-17.798 12.098,-32.247 27,-32.247 14.902,0 27,14.449 27,32.247 0,5.661 -1.248,11.222 -3.617,16.124 h -8.573 c 3.732,-4.262 6.05,-10.207 6.05,-16.78 0,-4.119 -0.928,-8.166 -2.691,-11.734 h -34.786 c -1.763,3.568 -2.691,7.615 -2.691,11.734 0,6.573 2.318,12.518 6.05,16.78 z" />
      </g>
      <path
         style="fill:none;stroke:#205081;stroke-width:5"
         inkscape:connector-curvature="0"
         id="path5299"
         d="m 1464.26,729.937 c 11.427,7.776 11.006,27.748 11.006,27.748 m -35.436,-28.268 c -6.658,4.889 -17.478,21.957 -15.728,27.69" />
    </g>
    <g
       transform="translate(-1068.5,-209.77739)"
       id="g5325">
      <g
         style="stroke:#205081;stroke-width:5"
         id="g5307"
         serif:id="body">
        <path
           style="fill:#0061aa"
           inkscape:connector-curvature="0"
           id="path5303"
           d="m 1392.09,761.397 -0.041,-0.134 17.705,-0.009 -0.044,0.143 h 0.317 v 17.262 H 1403.7 V 766.38 c -1.546,0.597 -1.451,0.697 -2.795,0.698 -1.345,10e-4 -1.634,-0.246 -2.799,-0.695 v 12.276 h -6.327 v -17.262 z" />
        <path
           style="fill:#c4c99f"
           inkscape:connector-curvature="0"
           id="path5305"
           d="m 1411.94,765.581 c 0.543,-2.401 0.821,-4.958 0.821,-7.538 0,-11.378 -5.311,-20.616 -11.854,-20.616 -6.542,0 -11.854,9.238 -11.854,20.616 0,2.58 0.279,5.137 0.821,7.538 z" />
      </g>
      <g
         id="g5321"
         serif:id="head">
        <circle
           style="fill:#dfc48a;stroke:#205081;stroke-width:5"
           id="circle5309"
           r="16.375"
           cy="723.01703"
           cx="1400.9" />
        <ellipse
           style="fill:#205081"
           id="ellipse5311"
           ry="2.2920001"
           rx="1.637"
           cy="726.65503"
           cx="1395.99" />
        <ellipse
           style="fill:#205081"
           id="ellipse5313"
           ry="2.2920001"
           rx="1.637"
           cy="726.65503"
           cx="1409.75" />
        <path
           style="fill:none;stroke:#205081;stroke-width:2"
           inkscape:connector-curvature="0"
           id="path5315"
           d="m 1393.04,721.742 z m 15.07,0 h 3.275" />
        <ellipse
           style="fill:#d3874e"
           id="ellipse5317"
           ry="1.965"
           rx="2.1289999"
           cy="729.60199"
           cx="1403.53" />
        <path
           style="fill:#e1be5c;stroke:#205081;stroke-width:5"
           inkscape:connector-curvature="0"
           id="path5319"
           d="m 1388.08,729.951 c -4.079,-0.825 -6.166,-6.564 -6.166,-10.839 0,-8.197 6.577,-14.852 17.14,-14.852 10.571,0 19.14,6.649 19.14,14.852 l -27.114,-4 z" />
      </g>
      <path
         style="fill:none;stroke:#205081;stroke-width:5"
         inkscape:connector-curvature="0"
         id="path5323"
         d="m 1409.99,743.322 c 8.56,5.825 13.245,13.785 13.245,13.785 m -31.545,-14.174 c -4.987,3.662 -12.318,15.88 -11.007,20.174" />
    </g>
    <g
       transform="translate(-1068.5,-209.77739)"
       id="g5346">
      <path
         style="fill:#eee4c1;stroke:#205081;stroke-width:2.70000005"
         inkscape:connector-curvature="0"
         id="path5327"
         d="m 1285.05,755.072 c 0.331,1.146 0.662,2.293 0.942,3.453 0.234,0.969 0.459,1.944 0.598,2.932 0.697,4.95 -1.802,11.839 2.621,15.641 1.133,0.974 4.138,3.614 6.09,2.677 1.247,-0.599 1.408,-3.558 0.902,-4.608 -0.13,-0.269 -0.531,-0.284 -0.761,-0.475 -0.533,-0.442 -1.071,-0.888 -1.517,-1.417 -0.591,-0.702 -1.027,-1.962 -1.159,-2.826 -0.573,-3.781 2.373,-7.781 0.996,-11.409 -0.334,-0.88 -0.918,-1.654 -1.505,-2.39 -1.112,-1.394 -3.07,-1.908 -4.746,-1.985 -0.591,-0.027 -1.179,0.109 -1.763,0.205 -0.239,0.04 -0.47,0.121 -0.698,0.202" />
      <path
         style="fill:#e87d47;stroke:#205081;stroke-width:5"
         inkscape:connector-curvature="0"
         id="path5329"
         d="m 1260.34,750.024 a 7.022,7.022 0 0 1 -5.028,8.885 l -0.779,0.192 v -3.695 c 0,-0.241 -0.053,-0.478 -0.155,-0.697 -0.196,-0.415 -0.556,-1.183 -0.972,-2.07 a 4.074,4.074 0 0 0 -6.569,-1.149 l -10e-4,0.002 a 9.027,9.027 0 0 0 1.206,13.779 l 2.422,1.696 a 20.96,20.96 0 0 0 4.457,2.375 c 3.185,1.231 8.378,3.256 7.607,3.092 -0.175,-0.037 -0.547,0.078 -1.049,0.299 a 21.26,21.26 0 0 1 -19.712,-1.549 c -0.144,-0.073 -0.28,-0.159 -0.416,-0.244 a 15.555,15.555 0 0 1 -6.704,-17.299 l 0.141,-0.512 a 16.978,16.978 0 0 1 10.684,-11.484 l 0.858,-0.305 a 9.546,9.546 0 0 1 10.493,2.84 l 0.927,1.099 a 13.552,13.552 0 0 1 2.59,4.744 z" />
      <path
         style="fill:#e87d47"
         inkscape:connector-curvature="0"
         id="path5331"
         d="m 1288.51,757.223 c 0.533,1.197 1.623,15.774 11.15,22.256 3.046,2.073 6.175,2.121 4.447,0.065 -2.612,-3.108 -3.846,-22.049 -4.281,-25.372 -0.206,-1.57 0.75,-6.123 -1.245,-15.821 -1.547,-7.521 7.244,-5.325 9.166,-5.627 3.004,-0.471 5.693,-4.429 5.77,-10.317 0.06,-4.569 -3.785,-3.08 -5.77,-3.467 -1.984,-0.386 -0.183,-5.024 -8.087,-5.391 -1.928,-0.09 -2.157,-7.549 -2.157,-7.549 0,0 -10.448,4.776 -13.48,19.95 -2.615,13.086 -19.15,26.146 -21.889,29.886 -4.678,6.386 -4.845,13.889 -3.806,17.643 1.382,4.996 5.224,6.494 5.572,6.494 h 12.04 c 4.062,0 13.897,0.22 14.824,-0.429 1.056,-0.739 -1.022,-6.609 -9.886,-6.065 0,0 -0.947,0.487 0,0 3.88,-1.993 9.53,-7.966 8.517,-11.952 -0.738,-2.905 -8.287,-11.464 -19.455,4.942 0,0 5.674,-8.662 10.938,-9.556 2.295,-0.39 7.791,0.919 7.791,0.919 0.172,0.022 -5.672,-13.01 -0.159,-0.609 z" />
      <clipPath
         id="c">
        <path
           inkscape:connector-curvature="0"
           id="path5333"
           d="m 1288.51,757.223 c 0.533,1.197 1.623,15.774 11.15,22.256 3.046,2.073 6.175,2.121 4.447,0.065 -2.612,-3.108 -3.846,-22.049 -4.281,-25.372 -0.206,-1.57 0.75,-6.123 -1.245,-15.821 -1.547,-7.521 7.244,-5.325 9.166,-5.627 3.004,-0.471 5.693,-4.429 5.77,-10.317 0.06,-4.569 -3.785,-3.08 -5.77,-3.467 -1.984,-0.386 -0.183,-5.024 -8.087,-5.391 -1.928,-0.09 -2.157,-7.549 -2.157,-7.549 0,0 -10.448,4.776 -13.48,19.95 -2.615,13.086 -19.15,26.146 -21.889,29.886 -4.678,6.386 -4.845,13.889 -3.806,17.643 1.382,4.996 5.224,6.494 5.572,6.494 h 12.04 c 4.062,0 13.897,0.22 14.824,-0.429 1.056,-0.739 -1.022,-6.609 -9.886,-6.065 0,0 -0.947,0.487 0,0 3.88,-1.993 9.53,-7.966 8.517,-11.952 -0.738,-2.905 -8.287,-11.464 -19.455,4.942 0,0 5.674,-8.662 10.938,-9.556 2.295,-0.39 7.791,0.919 7.791,0.919 0.172,0.022 -5.672,-13.01 -0.159,-0.609 z" />
      </clipPath>
      <g
         id="g5338"
         clip-path="url(#c)">
        <path
           style="fill:#eee4c1"
           inkscape:connector-curvature="0"
           id="path5336"
           d="m 1314.21,723.254 c 0,0 -4.363,-0.664 -10.784,-1.078 -2.743,-0.178 -8.495,-0.228 -10.96,6.47 -4.304,11.694 -7.18,18.326 0,25.522 7.18,7.197 20.546,26.642 20.665,25.311 0.12,-1.33 1.079,-56.225 1.079,-56.225 z" />
      </g>
      <path
         style="fill:none;stroke:#205081;stroke-width:5"
         inkscape:connector-curvature="0"
         id="path5340"
         d="m 1288.51,757.223 c 0.533,1.197 1.623,15.774 11.15,22.256 3.046,2.073 6.175,2.121 4.447,0.065 -2.612,-3.108 -3.846,-22.049 -4.281,-25.372 -0.206,-1.57 0.75,-6.123 -1.245,-15.821 -1.547,-7.521 7.244,-5.325 9.166,-5.627 3.004,-0.471 5.693,-4.429 5.77,-10.317 0.06,-4.569 -3.785,-3.08 -5.77,-3.467 -1.984,-0.386 -0.183,-5.024 -8.087,-5.391 -1.928,-0.09 -2.157,-7.549 -2.157,-7.549 0,0 -10.448,4.776 -13.48,19.95 -2.615,13.086 -19.15,26.146 -21.889,29.886 -4.678,6.386 -4.845,13.889 -3.806,17.643 1.382,4.996 5.224,6.494 5.572,6.494 h 12.04 c 4.062,0 13.897,0.22 14.824,-0.429 1.056,-0.739 -1.022,-6.609 -9.886,-6.065 0,0 -0.947,0.487 0,0 3.88,-1.993 9.53,-7.966 8.517,-11.952 -0.738,-2.905 -8.287,-11.464 -19.455,4.942 0,0 5.674,-8.662 10.938,-9.556 2.295,-0.39 7.791,0.919 7.791,0.919 0.172,0.022 -5.672,-13.01 -0.159,-0.609 z" />
      <path
         style="fill:#205081"
         inkscape:connector-curvature="0"
         id="path5342"
         d="m 1312.86,720.903 c -1.139,-0.676 -2.521,-0.452 -3.086,0.5 -0.565,0.951 -0.1,2.272 1.039,2.948 1.138,0.675 2.52,0.451 3.085,-0.5 0.565,-0.952 0.1,-2.273 -1.038,-2.948 z" />
      <ellipse
         style="fill:#205081"
         id="ellipse5344"
         ry="2.2920001"
         rx="1.637"
         cy="720.68701"
         cx="1300.99" />
    </g>
    <path
       style="fill:#a9e1cd;stroke:#205081;stroke-width:5"
       inkscape:connector-curvature="0"
       id="path5348"
       d="m 232.39,537.84261 -19.743,-15.051 22.695,1.63 z" />
  </g>
</svg>
