<?xml version="1.0" encoding="UTF-8" standalone="no"?><!DOCTYPE svg PUBLIC "-//W3C//DTD SVG 1.1//EN" "http://www.w3.org/Graphics/SVG/1.1/DTD/svg11.dtd"><svg width="100%" height="100%" viewBox="0 0 2400 1000" version="1.1" xmlns="http://www.w3.org/2000/svg" xmlns:xlink="http://www.w3.org/1999/xlink" xml:space="preserve" xmlns:serif="http://www.serif.com/" style="fill-rule:evenodd;clip-rule:evenodd;stroke-linecap:round;stroke-linejoin:round;stroke-miterlimit:1.5;"><circle cx="450.5" cy="177.5" r="52.5" style="fill:#ffb700;stroke:#205081;stroke-width:6px;"/><g id="Background"><rect x="755.059" y="395.049" width="148.544" height="294.989" style="fill:#74bfec;"/><rect x="937.607" y="341.493" width="180.76" height="348.544" style="fill:#74bfec;"/><rect x="850.613" y="472.872" width="316.999" height="217.165" style="fill:#74bfec;"/><rect x="1138.11" y="395.049" width="58.995" height="294.989" style="fill:#74bfec;"/><rect x="1211.66" y="255.707" width="96.525" height="434.331" style="fill:#74bfec;"/><rect x="731.534" y="395.049" width="153.274" height="294.989" style="fill:#74bfec;"/><rect x="1286.62" y="537.037" width="207.296" height="153" style="fill:#74bfec;"/><rect x="919.894" y="341.493" width="186.515" height="348.544" style="fill:#74bfec;"/><rect x="830.13" y="472.872" width="327.092" height="217.165" style="fill:#74bfec;"/><rect x="1126.79" y="395.049" width="60.873" height="294.989" style="fill:#74bfec;"/><rect x="1202.68" y="255.707" width="99.598" height="434.331" style="fill:#74bfec;"/><rect x="410.179" y="366.096" width="207.296" height="318.436" style="fill:#74bfec;"/><rect x="1267.6" y="182.925" width="99.598" height="434.331" style="fill:#74bfec;"/><path d="M1525.02,289.291l-30.283,-39.09l-30.284,39.09l0,294.578l60.567,0l0,-294.578Z" style="fill:#74bfec;"/><path d="M743.067,240.895l-30.283,-39.09l-30.284,39.09l0,294.578l60.567,0l0,-294.578Z" style="fill:#74bfec;"/><path d="M1037.5,232.903l-30.283,-39.09l-30.284,39.09l0,294.578l60.567,0l0,-294.578Z" style="fill:#74bfec;"/><path d="M587.492,282.19l-53.626,-53.39l-53.626,53.39l0,402.342l107.252,0l0,-402.342Z" style="fill:#74bfec;"/><path d="M927.783,326.68l-92.358,-47.548l-92.358,47.548l0,358.319l184.716,0l0,-358.319Z" style="fill:#74bfec;"/><path d="M1467.49,395.134l-53.625,-38.403l-53.626,38.403l0,289.398l107.251,0l0,-289.398Z" style="fill:#74bfec;"/><rect x="1472.18" y="335.988" width="186.515" height="348.544" style="fill:#74bfec;"/><rect x="1382.42" y="467.366" width="327.092" height="217.165" style="fill:#74bfec;"/><path d="M1739.75,389.954l-30.283,-39.09l-30.283,39.09l0,294.578l60.566,0l0,-294.578Z" style="fill:#74bfec;"/><path d="M1472.2,407.228l-76.206,-36.798l-76.206,36.798l0,277.304l152.412,0l0,-277.304Z" style="fill:#74bfec;"/><path d="M1903.63,371.656l-151.21,-39.09l-151.21,39.09l0,294.578l302.42,0l0,-294.578Z" style="fill:#74bfec;"/></g><g id="Background1" serif:id="Background"><rect x="1074.13" y="432.51" width="199.905" height="153.938" style="fill:#157ebd;"/><rect x="785.114" y="404.563" width="243.26" height="181.886" style="fill:#157ebd;"/><rect x="718.842" y="473.122" width="426.606" height="113.327" style="fill:#157ebd;"/><rect x="679.145" y="432.51" width="79.393" height="153.938" style="fill:#157ebd;"/><rect x="529.66" y="359.796" width="129.899" height="226.653" style="fill:#157ebd;"/><rect x="1099.43" y="432.51" width="206.271" height="153.938" style="fill:#157ebd;"/><rect x="279.717" y="506.606" width="278.972" height="79.842" style="fill:#157ebd;"/><rect x="801.206" y="404.563" width="251.005" height="181.886" style="fill:#157ebd;"/><rect x="732.824" y="473.122" width="440.189" height="113.327" style="fill:#157ebd;"/><rect x="691.863" y="432.51" width="81.921" height="153.938" style="fill:#157ebd;"/><rect x="578.556" y="298.999" width="134.035" height="271.483" style="fill:#157ebd;"/><rect x="1422.86" y="417.402" width="315.311" height="166.174" style="fill:#157ebd;"/><rect x="1371.46" y="345.754" width="98.735" height="237.821" style="fill:#157ebd;"/><rect x="1092.46" y="251.318" width="98.735" height="332.257" style="fill:#157ebd;"/><rect x="739.645" y="332.279" width="107.154" height="268.257" style="fill:#157ebd;"/><rect x="1717.1" y="356.922" width="134.035" height="226.653" style="fill:#157ebd;"/><path d="M1871.61,429.852l40.754,-20.399l40.754,20.399l0,153.724l-81.508,0l0,-153.724Z" style="fill:#157ebd;"/><path d="M1939.47,372.698l74.844,-33.356l74.844,33.356l0,251.371l-149.688,0l0,-251.371Z" style="fill:#157ebd;"/><path d="M1743.36,319.398l40.754,-20.399l40.754,20.399l0,153.724l-81.508,0l0,-153.724Z" style="fill:#157ebd;"/><path d="M893.948,347.896l40.755,-20.399l40.754,20.399l0,153.724l-81.509,0l0,-153.724Z" style="fill:#157ebd;"/><path d="M1499.55,373.616l72.168,-27.862l72.168,27.862l0,209.96l-144.336,0l0,-209.96Z" style="fill:#157ebd;"/><path d="M1172.1,373.616l72.167,-27.862l72.168,27.862l0,209.96l-144.335,0l0,-209.96Z" style="fill:#157ebd;"/><path d="M315.272,432.555l72.167,-20.041l72.168,20.041l0,151.021l-144.335,0l0,-151.021Z" style="fill:#157ebd;"/></g><g id="city-hall" serif:id="city hall"><rect x="692.29" y="388.96" width="755" height="344.471" style="fill:#fef7df;"/><rect x="692.29" y="388.96" width="755" height="10" style="fill:#d8cca4;"/><rect x="692.29" y="546.725" width="755" height="10" style="fill:#d8cca4;"/><rect x="692.29" y="388.96" width="755" height="344.471" style="fill:none;stroke:#205081;stroke-width:5px;"/><rect x="944.29" y="373.96" width="251" height="359.471" style="fill:#fef7df;"/><clipPath id="_clip1"><rect x="944.29" y="373.96" width="251" height="359.471"/></clipPath><g clip-path="url(#_clip1)"><rect x="692.29" y="546.725" width="755" height="10" style="fill:#d8cca4;"/><rect x="692.29" y="388.725" width="755" height="10" style="fill:#d8cca4;"/></g><rect x="944.29" y="373.96" width="251" height="359.471" style="fill:none;stroke:#205081;stroke-width:3px;"/><g><path d="M1070.79,282.725l240,91.235l-480,0l240,-91.235Z" style="fill:#ebeff3;stroke:#205081;stroke-width:5px;"/></g><path d="M1069.79,301.352l191,72.608l-382,0l191,-72.608Z" style="fill:#d8cca4;stroke:#205081;stroke-width:3px;"/><path d="M1069.79,312.377l162,61.583l-324,0l162,-61.583Z" style="fill:#fef7df;"/><rect x="682.79" y="673.696" width="774" height="59.735" style="fill:#ebeff3;stroke:#205081;stroke-width:5px;"/><g id="stairs"><rect x="937.79" y="723.431" width="264" height="10" style="fill:#fff;stroke:#205081;stroke-width:5px;"/><rect x="945.639" y="713.431" width="249.73" height="10" style="fill:#fff;stroke:#205081;stroke-width:5px;"/><rect x="952.774" y="703.431" width="235.459" height="10" style="fill:#fff;stroke:#205081;stroke-width:5px;"/><rect x="959.909" y="693.431" width="221.189" height="10" style="fill:#fff;stroke:#205081;stroke-width:5px;"/><rect x="967.044" y="683.431" width="206.919" height="10" style="fill:#fff;stroke:#205081;stroke-width:5px;"/><rect x="974.179" y="673.431" width="192.649" height="10" style="fill:#fff;stroke:#205081;stroke-width:5px;"/></g><rect x="678.29" y="373.96" width="789" height="15" style="fill:#ebeff3;stroke:#205081;stroke-width:5px;"/><g id="windows-middle" serif:id="windows middle"><g><g id="windows"><rect x="964.79" y="424.725" width="50" height="80" style="fill:#fff;stroke:#205081;stroke-width:5px;"/><path d="M989.79,424.725l0,80" style="fill:none;stroke:#205081;stroke-width:5px;"/><path d="M964.79,477.725l50,0" style="fill:none;stroke:#205081;stroke-width:5px;"/><path d="M964.79,451.725l50,0" style="fill:none;stroke:#205081;stroke-width:5px;"/></g><g id="windows1" serif:id="windows"><rect x="1044.79" y="424.725" width="50" height="80" style="fill:#fff;stroke:#205081;stroke-width:5px;"/><path d="M1069.79,424.725l0,80" style="fill:none;stroke:#205081;stroke-width:5px;"/><path d="M1044.79,477.725l50,0" style="fill:none;stroke:#205081;stroke-width:5px;"/><path d="M1044.79,451.725l50,0" style="fill:none;stroke:#205081;stroke-width:5px;"/></g><g id="windows2" serif:id="windows"><rect x="1124.79" y="424.725" width="50" height="80" style="fill:#fff;stroke:#205081;stroke-width:5px;"/><path d="M1149.79,424.725l0,80" style="fill:none;stroke:#205081;stroke-width:5px;"/><path d="M1124.79,477.725l50,0" style="fill:none;stroke:#205081;stroke-width:5px;"/><path d="M1124.79,451.725l50,0" style="fill:none;stroke:#205081;stroke-width:5px;"/></g></g><g><g id="windows3" serif:id="windows"><rect x="964.79" y="573.696" width="50" height="80" style="fill:#fff;stroke:#205081;stroke-width:5px;"/><path d="M989.79,573.696l0,80" style="fill:none;stroke:#205081;stroke-width:5px;"/><path d="M964.79,626.696l50,0" style="fill:none;stroke:#205081;stroke-width:5px;"/><path d="M964.79,600.696l50,0" style="fill:none;stroke:#205081;stroke-width:5px;"/></g><g id="windows4" serif:id="windows"><rect x="1044.79" y="573.696" width="50" height="80" style="fill:#fff;stroke:#205081;stroke-width:5px;"/><path d="M1069.79,573.696l0,80" style="fill:none;stroke:#205081;stroke-width:5px;"/><path d="M1044.79,626.696l50,0" style="fill:none;stroke:#205081;stroke-width:5px;"/><path d="M1044.79,600.696l50,0" style="fill:none;stroke:#205081;stroke-width:5px;"/></g><g id="windows5" serif:id="windows"><rect x="1124.79" y="573.696" width="50" height="80" style="fill:#fff;stroke:#205081;stroke-width:5px;"/><path d="M1149.79,573.696l0,80" style="fill:none;stroke:#205081;stroke-width:5px;"/><path d="M1124.79,626.696l50,0" style="fill:none;stroke:#205081;stroke-width:5px;"/><path d="M1124.79,600.696l50,0" style="fill:none;stroke:#205081;stroke-width:5px;"/></g></g></g><g id="windows-right" serif:id="windows right"><g><g id="windows6" serif:id="windows"><rect x="1217.29" y="424.725" width="50" height="80" style="fill:#fff;stroke:#205081;stroke-width:5px;"/><path d="M1242.29,424.725l0,80" style="fill:none;stroke:#205081;stroke-width:5px;"/><path d="M1217.29,477.725l50,0" style="fill:none;stroke:#205081;stroke-width:5px;"/><path d="M1217.29,451.725l50,0" style="fill:none;stroke:#205081;stroke-width:5px;"/></g><g id="windows7" serif:id="windows"><rect x="1297.29" y="424.725" width="50" height="80" style="fill:#fff;stroke:#205081;stroke-width:5px;"/><path d="M1322.29,424.725l0,80" style="fill:none;stroke:#205081;stroke-width:5px;"/><path d="M1297.29,477.725l50,0" style="fill:none;stroke:#205081;stroke-width:5px;"/><path d="M1297.29,451.725l50,0" style="fill:none;stroke:#205081;stroke-width:5px;"/></g><g id="windows8" serif:id="windows"><rect x="1377.29" y="424.725" width="50" height="80" style="fill:#fff;stroke:#205081;stroke-width:5px;"/><path d="M1402.29,424.725l0,80" style="fill:none;stroke:#205081;stroke-width:5px;"/><path d="M1377.29,477.725l50,0" style="fill:none;stroke:#205081;stroke-width:5px;"/><path d="M1377.29,451.725l50,0" style="fill:none;stroke:#205081;stroke-width:5px;"/></g></g><g><g id="windows9" serif:id="windows"><rect x="1217.29" y="573.696" width="50" height="80" style="fill:#fff;stroke:#205081;stroke-width:5px;"/><path d="M1242.29,573.696l0,80" style="fill:none;stroke:#205081;stroke-width:5px;"/><path d="M1217.29,626.696l50,0" style="fill:none;stroke:#205081;stroke-width:5px;"/><path d="M1217.29,600.696l50,0" style="fill:none;stroke:#205081;stroke-width:5px;"/></g><g id="windows10" serif:id="windows"><rect x="1297.29" y="573.696" width="50" height="80" style="fill:#fff;stroke:#205081;stroke-width:5px;"/><path d="M1322.29,573.696l0,80" style="fill:none;stroke:#205081;stroke-width:5px;"/><path d="M1297.29,626.696l50,0" style="fill:none;stroke:#205081;stroke-width:5px;"/><path d="M1297.29,600.696l50,0" style="fill:none;stroke:#205081;stroke-width:5px;"/></g><g id="windows11" serif:id="windows"><rect x="1377.29" y="573.696" width="50" height="80" style="fill:#fff;stroke:#205081;stroke-width:5px;"/><path d="M1402.29,573.696l0,80" style="fill:none;stroke:#205081;stroke-width:5px;"/><path d="M1377.29,626.696l50,0" style="fill:none;stroke:#205081;stroke-width:5px;"/><path d="M1377.29,600.696l50,0" style="fill:none;stroke:#205081;stroke-width:5px;"/></g></g></g><g id="windows-left" serif:id="windows left"><g><g id="windows12" serif:id="windows"><rect x="712.29" y="424.725" width="50" height="80" style="fill:#fff;stroke:#205081;stroke-width:5px;"/><path d="M737.29,424.725l0,80" style="fill:none;stroke:#205081;stroke-width:5px;"/><path d="M712.29,477.725l50,0" style="fill:none;stroke:#205081;stroke-width:5px;"/><path d="M712.29,451.725l50,0" style="fill:none;stroke:#205081;stroke-width:5px;"/></g><g id="windows13" serif:id="windows"><rect x="792.29" y="424.725" width="50" height="80" style="fill:#fff;stroke:#205081;stroke-width:5px;"/><path d="M817.29,424.725l0,80" style="fill:none;stroke:#205081;stroke-width:5px;"/><path d="M792.29,477.725l50,0" style="fill:none;stroke:#205081;stroke-width:5px;"/><path d="M792.29,451.725l50,0" style="fill:none;stroke:#205081;stroke-width:5px;"/></g><g id="windows14" serif:id="windows"><rect x="872.29" y="424.725" width="50" height="80" style="fill:#fff;stroke:#205081;stroke-width:5px;"/><path d="M897.29,424.725l0,80" style="fill:none;stroke:#205081;stroke-width:5px;"/><path d="M872.29,477.725l50,0" style="fill:none;stroke:#205081;stroke-width:5px;"/><path d="M872.29,451.725l50,0" style="fill:none;stroke:#205081;stroke-width:5px;"/></g></g><g><g id="windows15" serif:id="windows"><rect x="712.29" y="573.696" width="50" height="80" style="fill:#fff;stroke:#205081;stroke-width:5px;"/><path d="M737.29,573.696l0,80" style="fill:none;stroke:#205081;stroke-width:5px;"/><path d="M712.29,626.696l50,0" style="fill:none;stroke:#205081;stroke-width:5px;"/><path d="M712.29,600.696l50,0" style="fill:none;stroke:#205081;stroke-width:5px;"/></g><g id="windows16" serif:id="windows"><rect x="792.29" y="573.696" width="50" height="80" style="fill:#fff;stroke:#205081;stroke-width:5px;"/><path d="M817.29,573.696l0,80" style="fill:none;stroke:#205081;stroke-width:5px;"/><path d="M792.29,626.696l50,0" style="fill:none;stroke:#205081;stroke-width:5px;"/><path d="M792.29,600.696l50,0" style="fill:none;stroke:#205081;stroke-width:5px;"/></g><g id="windows17" serif:id="windows"><rect x="872.29" y="573.696" width="50" height="80" style="fill:#fff;stroke:#205081;stroke-width:5px;"/><path d="M897.29,573.696l0,80" style="fill:none;stroke:#205081;stroke-width:5px;"/><path d="M872.29,626.696l50,0" style="fill:none;stroke:#205081;stroke-width:5px;"/><path d="M872.29,600.696l50,0" style="fill:none;stroke:#205081;stroke-width:5px;"/></g></g></g><rect x="1037.79" y="573.696" width="64" height="100" style="fill:#003e64;stroke:#205081;stroke-width:5px;"/><rect x="689.79" y="535.725" width="760" height="10" style="fill:#adb9c9;stroke:#205081;stroke-width:3px;"/><g id="bushes"><path d="M663.993,710.625l7.57,0c-3.147,0 -5.703,-2.554 -5.703,-5.701c0,-3.147 2.556,-5.701 5.703,-5.701l17.506,0c-3.147,0 -5.703,-2.555 -5.703,-5.702c0,-3.146 2.556,-5.701 5.703,-5.701l13.423,0c3.148,0 5.703,2.555 5.703,5.701c0,3.147 -2.555,5.702 -5.703,5.702l10.341,0c3.148,0 5.703,2.554 5.703,5.701c0,3.147 -2.555,5.701 -5.703,5.701l7.57,0c3.148,0 5.703,2.555 5.703,5.702c0,3.146 -2.555,5.701 -5.703,5.701l-7.57,0c3.148,0 5.703,2.555 5.703,5.702c0,3.146 -2.555,5.701 -5.703,5.701l-41.27,0c-3.147,0 -5.703,-2.555 -5.703,-5.701c0,-3.147 2.556,-5.702 5.703,-5.702l-7.57,0c-3.147,0 -5.703,-2.554 -5.703,-5.701c0,-3.147 2.556,-5.702 5.703,-5.702Z" style="fill:#9dbf15;stroke:#205081;stroke-width:5px;"/><path d="M1314.49,710.625l7.57,0c-3.147,0 -5.703,-2.554 -5.703,-5.701c0,-3.147 2.556,-5.701 5.703,-5.701l17.506,0c-3.147,0 -5.703,-2.555 -5.703,-5.702c0,-3.146 2.556,-5.701 5.703,-5.701l13.423,0c3.148,0 5.703,2.555 5.703,5.701c0,3.147 -2.555,5.702 -5.703,5.702l10.341,0c3.148,0 5.703,2.554 5.703,5.701c0,3.147 -2.555,5.701 -5.703,5.701l7.57,0c3.148,0 5.703,2.555 5.703,5.702c0,3.146 -2.555,5.701 -5.703,5.701l-7.57,0c3.148,0 5.703,2.555 5.703,5.702c0,3.146 -2.555,5.701 -5.703,5.701l-41.27,0c-3.147,0 -5.703,-2.555 -5.703,-5.701c0,-3.147 2.556,-5.702 5.703,-5.702l-7.57,0c-3.147,0 -5.703,-2.554 -5.703,-5.701c0,-3.147 2.556,-5.702 5.703,-5.702Z" style="fill:#9dbf15;stroke:#205081;stroke-width:5px;"/><path d="M1207.49,710.625l7.57,0c-3.147,0 -5.703,-2.554 -5.703,-5.701c0,-3.147 2.556,-5.701 5.703,-5.701l17.506,0c-3.147,0 -5.703,-2.555 -5.703,-5.702c0,-3.146 2.556,-5.701 5.703,-5.701l13.423,0c3.148,0 5.703,2.555 5.703,5.701c0,3.147 -2.555,5.702 -5.703,5.702l10.341,0c3.148,0 5.703,2.554 5.703,5.701c0,3.147 -2.555,5.701 -5.703,5.701l7.57,0c3.148,0 5.703,2.555 5.703,5.702c0,3.146 -2.555,5.701 -5.703,5.701l-7.57,0c3.148,0 5.703,2.555 5.703,5.702c0,3.146 -2.555,5.701 -5.703,5.701l-41.27,0c-3.147,0 -5.703,-2.555 -5.703,-5.701c0,-3.147 2.556,-5.702 5.703,-5.702l-7.57,0c-3.147,0 -5.703,-2.554 -5.703,-5.701c0,-3.147 2.556,-5.702 5.703,-5.702Z" style="fill:#9dbf15;stroke:#205081;stroke-width:5px;"/><path d="M767.993,710.625l7.57,0c-3.147,0 -5.703,-2.554 -5.703,-5.701c0,-3.147 2.556,-5.701 5.703,-5.701l17.506,0c-3.147,0 -5.703,-2.555 -5.703,-5.702c0,-3.146 2.556,-5.701 5.703,-5.701l13.423,0c3.148,0 5.703,2.555 5.703,5.701c0,3.147 -2.555,5.702 -5.703,5.702l10.341,0c3.148,0 5.703,2.554 5.703,5.701c0,3.147 -2.555,5.701 -5.703,5.701l7.57,0c3.148,0 5.703,2.555 5.703,5.702c0,3.146 -2.555,5.701 -5.703,5.701l-7.57,0c3.148,0 5.703,2.555 5.703,5.702c0,3.146 -2.555,5.701 -5.703,5.701l-41.27,0c-3.147,0 -5.703,-2.555 -5.703,-5.701c0,-3.147 2.556,-5.702 5.703,-5.702l-7.57,0c-3.147,0 -5.703,-2.554 -5.703,-5.701c0,-3.147 2.556,-5.702 5.703,-5.702Z" style="fill:#9dbf15;stroke:#205081;stroke-width:5px;"/><path d="M875.677,710.625l7.57,0c-3.147,0 -5.703,-2.554 -5.703,-5.701c0,-3.147 2.556,-5.701 5.703,-5.701l17.506,0c-3.147,0 -5.703,-2.555 -5.703,-5.702c0,-3.146 2.556,-5.701 5.703,-5.701l13.423,0c3.148,0 5.703,2.555 5.703,5.701c0,3.147 -2.555,5.702 -5.703,5.702l10.341,0c3.147,0 5.703,2.554 5.703,5.701c0,3.147 -2.556,5.701 -5.703,5.701l7.57,0c3.148,0 5.703,2.555 5.703,5.702c0,3.146 -2.555,5.701 -5.703,5.701l-7.57,0c3.147,0 5.703,2.555 5.703,5.702c0,3.146 -2.556,5.701 -5.703,5.701l-41.27,0c-3.147,0 -5.703,-2.555 -5.703,-5.701c0,-3.147 2.556,-5.702 5.703,-5.702l-7.57,0c-3.148,0 -5.703,-2.554 -5.703,-5.701c0,-3.147 2.555,-5.702 5.703,-5.702Z" style="fill:#9dbf15;stroke:#205081;stroke-width:5px;"/><path d="M1418.49,710.625l7.57,0c-3.147,0 -5.703,-2.554 -5.703,-5.701c0,-3.147 2.556,-5.701 5.703,-5.701l17.506,0c-3.147,0 -5.703,-2.555 -5.703,-5.702c0,-3.146 2.556,-5.701 5.703,-5.701l13.423,0c3.148,0 5.703,2.555 5.703,5.701c0,3.147 -2.555,5.702 -5.703,5.702l10.341,0c3.148,0 5.703,2.554 5.703,5.701c0,3.147 -2.555,5.701 -5.703,5.701l7.57,0c3.148,0 5.703,2.555 5.703,5.702c0,3.146 -2.555,5.701 -5.703,5.701l-7.57,0c3.148,0 5.703,2.555 5.703,5.702c0,3.146 -2.555,5.701 -5.703,5.701l-41.27,0c-3.147,0 -5.703,-2.555 -5.703,-5.701c0,-3.147 2.556,-5.702 5.703,-5.702l-7.57,0c-3.147,0 -5.703,-2.554 -5.703,-5.701c0,-3.147 2.556,-5.702 5.703,-5.702Z" style="fill:#9dbf15;stroke:#205081;stroke-width:5px;"/><g><path d="M1542.7,588.597c0,0 -41,60.985 -41,87.122c0,6.869 18.372,12.446 41,12.446c22.629,0 41,-5.577 41,-12.446c0,-26.137 -41,-87.122 -41,-87.122Z" style="fill:#9dbf15;stroke:#205081;stroke-width:5px;"/><path d="M1524.32,660.426l18.327,12.579l0,-21.5l16.06,-13.124" style="fill:none;stroke:#205081;stroke-width:5px;"/><path d="M1542.65,733.431c0.108,-0.373 0,-105.259 0,-105.259" style="fill:none;stroke:#205081;stroke-width:5px;"/></g><g><path d="M593.198,588.597c0,0 -41,60.985 -41,87.122c0,6.869 18.372,12.446 41,12.446c22.629,0 41,-5.577 41,-12.446c0,-26.137 -41,-87.122 -41,-87.122Z" style="fill:#9dbf15;stroke:#205081;stroke-width:5px;"/><path d="M574.823,660.426l18.327,12.579l0,-21.5l16.06,-13.124" style="fill:none;stroke:#205081;stroke-width:5px;"/><path d="M593.15,733.431c0.108,-0.373 0,-105.259 0,-105.259" style="fill:none;stroke:#205081;stroke-width:5px;"/></g></g><g id="clock"><ellipse cx="1069.79" cy="340.656" rx="15.017" ry="15" style="fill:#fff;stroke:#205081;stroke-width:5px;"/><path d="M1064.37,340.656l5.422,0" style="fill:none;stroke:#205081;stroke-width:5px;"/><path d="M1069.79,340.656l4.578,-6.137" style="fill:none;stroke:#205081;stroke-width:5px;"/></g><g id="flag"><rect x="1070.78" y="212.313" width="51.011" height="27" style="fill:#fff;"/><clipPath id="_clip2"><rect x="1070.78" y="212.313" width="51.011" height="27"/></clipPath><g clip-path="url(#_clip2)"><rect x="1070.78" y="212.313" width="17.937" height="25.064" style="fill:#0081d5;"/><rect x="1103.85" y="212.313" width="17.937" height="25.064" style="fill:#d1335b;"/></g><rect x="1070.78" y="212.313" width="51.011" height="27" style="fill:none;stroke:#205081;stroke-width:5px;"/><path d="M1070.78,212.313l0,70.746" style="fill:none;stroke:#205081;stroke-width:5px;"/></g></g><g id="hospital"><rect x="160.089" y="499.499" width="519.615" height="297.435" style="fill:#fff;"/><rect x="160.089" y="499.499" width="519.615" height="15.865" style="fill:#c9d3df;"/><rect x="160.089" y="499.499" width="519.615" height="297.435" style="fill:none;stroke:#205081;stroke-width:5px;"/><path d="M685.622,489.344c0,-1.868 -1.517,-3.385 -3.385,-3.385l-524.681,0c-1.868,0 -3.385,1.517 -3.385,3.385l0,6.77c0,1.868 1.517,3.385 3.385,3.385l524.681,0c1.868,0 3.385,-1.517 3.385,-3.385l0,-6.77Z" style="fill:#56acdf;stroke:#205081;stroke-width:5px;"/><g id="main-building" serif:id="main building"><rect x="332.388" y="466.613" width="175.612" height="329.809" style="fill:#fff;"/><clipPath id="_clip3"><rect x="332.388" y="466.613" width="175.612" height="329.809"/></clipPath><g clip-path="url(#_clip3)"><rect x="332.388" y="466.613" width="175.612" height="12.093" style="fill:#c9d3df;"/></g><rect x="332.388" y="466.613" width="175.612" height="329.809" style="fill:none;stroke:#205081;stroke-width:5px;"/><g id="stairs1" serif:id="stairs"><rect x="372.771" y="786.978" width="94.25" height="9.956" style="fill:#c9d3df;stroke:#205081;stroke-width:4.23px;"/><rect x="383.391" y="777.022" width="73.011" height="9.956" style="fill:#c9d3df;stroke:#205081;stroke-width:4.23px;"/></g><g id="main-door" serif:id="main door"><rect x="393.347" y="717.286" width="53.099" height="59.736" style="fill:#56acdf;stroke:#205081;stroke-width:4.23px;"/><path d="M419.896,717.286l0,59.736" style="fill:none;stroke:#205081;stroke-width:4.23px;"/><path d="M413.259,742.508l0,9.293" style="fill:none;stroke:#205081;stroke-width:4.23px;"/><path d="M426.534,742.508l0,9.293" style="fill:none;stroke:#205081;stroke-width:4.23px;"/></g><g><g id="window"><rect x="360.533" y="657.235" width="28.261" height="32.971" style="fill:#fff;stroke:#205081;stroke-width:4.23px;"/><path d="M360.533,673.721l28.26,0" style="fill:none;stroke:#205081;stroke-width:4.23px;"/></g><g id="window1" serif:id="window"><rect x="406.064" y="658.082" width="28.261" height="32.971" style="fill:#fff;stroke:#205081;stroke-width:4.23px;"/><path d="M406.064,674.567l28.26,0" style="fill:none;stroke:#205081;stroke-width:4.23px;"/></g><g id="window2" serif:id="window"><rect x="451.595" y="658.082" width="28.261" height="32.971" style="fill:#fff;stroke:#205081;stroke-width:4.23px;"/><path d="M451.595,674.567l28.26,0" style="fill:none;stroke:#205081;stroke-width:4.23px;"/></g></g><g><g id="window3" serif:id="window"><rect x="360.533" y="593.469" width="28.261" height="32.971" style="fill:#fff;stroke:#205081;stroke-width:4.23px;"/><path d="M360.533,609.955l28.26,0" style="fill:none;stroke:#205081;stroke-width:4.23px;"/></g><g id="window4" serif:id="window"><rect x="406.064" y="594.315" width="28.261" height="32.971" style="fill:#fff;stroke:#205081;stroke-width:4.23px;"/><path d="M406.064,610.801l28.26,0" style="fill:none;stroke:#205081;stroke-width:4.23px;"/></g><g id="window5" serif:id="window"><rect x="451.595" y="594.315" width="28.261" height="32.971" style="fill:#fff;stroke:#205081;stroke-width:4.23px;"/><path d="M451.595,610.801l28.26,0" style="fill:none;stroke:#205081;stroke-width:4.23px;"/></g></g><g><g id="window6" serif:id="window"><rect x="360.533" y="529.981" width="28.261" height="32.971" style="fill:#fff;stroke:#205081;stroke-width:4.23px;"/><path d="M360.533,546.467l28.26,0" style="fill:none;stroke:#205081;stroke-width:4.23px;"/></g><g id="window7" serif:id="window"><rect x="406.064" y="530.828" width="28.261" height="32.971" style="fill:#fff;stroke:#205081;stroke-width:4.23px;"/><path d="M406.064,547.313l28.26,0" style="fill:none;stroke:#205081;stroke-width:4.23px;"/></g><g id="window8" serif:id="window"><rect x="451.595" y="530.828" width="28.261" height="32.971" style="fill:#fff;stroke:#205081;stroke-width:4.23px;"/><path d="M451.595,547.313l28.26,0" style="fill:none;stroke:#205081;stroke-width:4.23px;"/></g></g><path d="M517.216,456.458c0,-1.868 -1.517,-3.385 -3.385,-3.385l-187.869,0c-1.869,0 -3.385,1.517 -3.385,3.385l0,6.77c0,1.868 1.516,3.385 3.385,3.385l187.869,0c1.868,0 3.385,-1.517 3.385,-3.385l0,-6.77Z" style="fill:#56acdf;stroke:#205081;stroke-width:4.23px;"/></g><path d="M437.654,489.549l0,11.639l-11.64,0l0,11.64l-11.64,0l0,-11.64l-11.639,0l0,-11.639l11.639,0l0,-11.64l11.64,0l0,11.64l11.64,0Z" style="fill:#003e64;"/><g><g><g id="window9" serif:id="window"><rect x="187.598" y="739.109" width="28.261" height="32.971" style="fill:#fff;stroke:#205081;stroke-width:4.23px;"/><path d="M187.598,755.595l28.261,0" style="fill:none;stroke:#205081;stroke-width:4.23px;"/></g><g id="window10" serif:id="window"><rect x="233.129" y="739.955" width="28.261" height="32.971" style="fill:#fff;stroke:#205081;stroke-width:4.23px;"/><path d="M233.129,756.441l28.261,0" style="fill:none;stroke:#205081;stroke-width:4.23px;"/></g><g id="window11" serif:id="window"><rect x="278.66" y="739.955" width="28.261" height="32.971" style="fill:#fff;stroke:#205081;stroke-width:4.23px;"/><path d="M278.66,756.441l28.261,0" style="fill:none;stroke:#205081;stroke-width:4.23px;"/></g></g><g><g id="window12" serif:id="window"><rect x="187.598" y="667.554" width="28.261" height="32.971" style="fill:#fff;stroke:#205081;stroke-width:4.23px;"/><path d="M187.598,684.039l28.261,0" style="fill:none;stroke:#205081;stroke-width:4.23px;"/></g><g id="window13" serif:id="window"><rect x="233.129" y="668.4" width="28.261" height="32.971" style="fill:#fff;stroke:#205081;stroke-width:4.23px;"/><path d="M233.129,684.886l28.261,0" style="fill:none;stroke:#205081;stroke-width:4.23px;"/></g><g id="window14" serif:id="window"><rect x="278.66" y="668.4" width="28.261" height="32.971" style="fill:#fff;stroke:#205081;stroke-width:4.23px;"/><path d="M278.66,684.886l28.261,0" style="fill:none;stroke:#205081;stroke-width:4.23px;"/></g></g><g><g id="window15" serif:id="window"><rect x="187.598" y="595.999" width="28.261" height="32.971" style="fill:#fff;stroke:#205081;stroke-width:4.23px;"/><path d="M187.598,612.484l28.261,0" style="fill:none;stroke:#205081;stroke-width:4.23px;"/></g><g id="window16" serif:id="window"><rect x="233.129" y="596.845" width="28.261" height="32.971" style="fill:#fff;stroke:#205081;stroke-width:4.23px;"/><path d="M233.129,613.33l28.261,0" style="fill:none;stroke:#205081;stroke-width:4.23px;"/></g><g id="window17" serif:id="window"><rect x="278.66" y="596.845" width="28.261" height="32.971" style="fill:#fff;stroke:#205081;stroke-width:4.23px;"/><path d="M278.66,613.33l28.261,0" style="fill:none;stroke:#205081;stroke-width:4.23px;"/></g></g><g><g id="window18" serif:id="window"><rect x="187.598" y="523.507" width="28.261" height="32.971" style="fill:#fff;stroke:#205081;stroke-width:4.23px;"/><path d="M187.598,539.993l28.261,0" style="fill:none;stroke:#205081;stroke-width:4.23px;"/></g><g id="window19" serif:id="window"><rect x="233.129" y="524.354" width="28.261" height="32.971" style="fill:#fff;stroke:#205081;stroke-width:4.23px;"/><path d="M233.129,540.839l28.261,0" style="fill:none;stroke:#205081;stroke-width:4.23px;"/></g><g id="window20" serif:id="window"><rect x="278.66" y="524.354" width="28.261" height="32.971" style="fill:#fff;stroke:#205081;stroke-width:4.23px;"/><path d="M278.66,540.839l28.261,0" style="fill:none;stroke:#205081;stroke-width:4.23px;"/></g></g></g><g><g><g id="window21" serif:id="window"><rect x="532.872" y="739.109" width="28.261" height="32.971" style="fill:#fff;stroke:#205081;stroke-width:4.23px;"/><path d="M532.872,755.595l28.261,0" style="fill:none;stroke:#205081;stroke-width:4.23px;"/></g><g id="window22" serif:id="window"><rect x="578.403" y="739.955" width="28.261" height="32.971" style="fill:#fff;stroke:#205081;stroke-width:4.23px;"/><path d="M578.403,756.441l28.261,0" style="fill:none;stroke:#205081;stroke-width:4.23px;"/></g><g id="window23" serif:id="window"><rect x="623.934" y="739.955" width="28.261" height="32.971" style="fill:#fff;stroke:#205081;stroke-width:4.23px;"/><path d="M623.934,756.441l28.261,0" style="fill:none;stroke:#205081;stroke-width:4.23px;"/></g></g><g><g id="window24" serif:id="window"><rect x="532.872" y="667.554" width="28.261" height="32.971" style="fill:#fff;stroke:#205081;stroke-width:4.23px;"/><path d="M532.872,684.039l28.261,0" style="fill:none;stroke:#205081;stroke-width:4.23px;"/></g><g id="window25" serif:id="window"><rect x="578.403" y="668.4" width="28.261" height="32.971" style="fill:#fff;stroke:#205081;stroke-width:4.23px;"/><path d="M578.403,684.886l28.261,0" style="fill:none;stroke:#205081;stroke-width:4.23px;"/></g><g id="window26" serif:id="window"><rect x="623.934" y="668.4" width="28.261" height="32.971" style="fill:#fff;stroke:#205081;stroke-width:4.23px;"/><path d="M623.934,684.886l28.261,0" style="fill:none;stroke:#205081;stroke-width:4.23px;"/></g></g><g><g id="window27" serif:id="window"><rect x="532.872" y="595.999" width="28.261" height="32.971" style="fill:#fff;stroke:#205081;stroke-width:4.23px;"/><path d="M532.872,612.484l28.261,0" style="fill:none;stroke:#205081;stroke-width:4.23px;"/></g><g id="window28" serif:id="window"><rect x="578.403" y="596.845" width="28.261" height="32.971" style="fill:#fff;stroke:#205081;stroke-width:4.23px;"/><path d="M578.403,613.33l28.261,0" style="fill:none;stroke:#205081;stroke-width:4.23px;"/></g><g id="window29" serif:id="window"><rect x="623.934" y="596.845" width="28.261" height="32.971" style="fill:#fff;stroke:#205081;stroke-width:4.23px;"/><path d="M623.934,613.33l28.261,0" style="fill:none;stroke:#205081;stroke-width:4.23px;"/></g></g><g><g id="window30" serif:id="window"><rect x="532.872" y="523.507" width="28.261" height="32.971" style="fill:#fff;stroke:#205081;stroke-width:4.23px;"/><path d="M532.872,539.993l28.261,0" style="fill:none;stroke:#205081;stroke-width:4.23px;"/></g><g id="window31" serif:id="window"><rect x="578.403" y="524.354" width="28.261" height="32.971" style="fill:#fff;stroke:#205081;stroke-width:4.23px;"/><path d="M578.403,540.839l28.261,0" style="fill:none;stroke:#205081;stroke-width:4.23px;"/></g><g id="window32" serif:id="window"><rect x="623.934" y="524.354" width="28.261" height="32.971" style="fill:#fff;stroke:#205081;stroke-width:4.23px;"/><path d="M623.934,540.839l28.261,0" style="fill:none;stroke:#205081;stroke-width:4.23px;"/></g></g></g></g><g id="justice"><rect x="1937.46" y="545.246" width="279.323" height="151.5" style="fill:#003e64;stroke:#205081;stroke-width:5px;"/><rect x="1937.46" y="545.246" width="279.323" height="21.773" style="fill:#002841;"/><rect x="2054.74" y="630.996" width="45" height="65" style="fill:#002841;stroke:#205081;stroke-width:3px;"/><g id="column"><rect x="1928.59" y="527.765" width="33.484" height="168.981" style="fill:#ebeff3;stroke:#205081;stroke-width:5px;"/><rect x="1920.33" y="685.092" width="50" height="11.654" style="fill:#adb9c9;stroke:#205081;stroke-width:5px;"/><rect x="1920.33" y="545.246" width="50" height="11.654" style="fill:#adb9c9;stroke:#205081;stroke-width:5px;"/></g><g><rect x="2009.78" y="527.765" width="33.484" height="168.981" style="fill:#ebeff3;stroke:#205081;stroke-width:5px;"/><rect x="2001.53" y="685.092" width="50" height="11.654" style="fill:#adb9c9;stroke:#205081;stroke-width:5px;"/><rect x="2001.53" y="545.246" width="50" height="11.654" style="fill:#adb9c9;stroke:#205081;stroke-width:5px;"/></g><g><rect x="2110.98" y="527.765" width="33.484" height="168.981" style="fill:#ebeff3;stroke:#205081;stroke-width:5px;"/><rect x="2102.72" y="685.092" width="50" height="11.654" style="fill:#adb9c9;stroke:#205081;stroke-width:5px;"/><rect x="2102.72" y="545.246" width="50" height="11.654" style="fill:#adb9c9;stroke:#205081;stroke-width:5px;"/></g><g><rect x="2192.18" y="527.765" width="33.484" height="168.981" style="fill:#ebeff3;stroke:#205081;stroke-width:5px;"/><rect x="2183.92" y="685.092" width="50" height="11.654" style="fill:#adb9c9;stroke:#205081;stroke-width:5px;"/><rect x="2183.92" y="545.246" width="50" height="11.654" style="fill:#adb9c9;stroke:#205081;stroke-width:5px;"/></g><path d="M2077.91,417.054l196.154,116.538l-392.308,0l196.154,-116.538Z" style="fill:#c9d3df;stroke:#205081;stroke-width:6.22px;"/><path d="M2077.91,444.091l150.646,89.501l-301.292,0l150.646,-89.501Z" style="fill:#ebeff3;stroke:#205081;stroke-width:3px;"/><rect x="1905.29" y="696.746" width="345.231" height="11.654" style="fill:#ebeff3;stroke:#205081;stroke-width:5px;"/><rect x="1873.91" y="708.4" width="408" height="11.654" style="fill:#c9d3df;stroke:#205081;stroke-width:5px;"/><rect x="1873.91" y="708.4" width="408" height="11.654" style="fill:#c9d3df;stroke:#205081;stroke-width:5px;"/><rect x="1905.29" y="533.592" width="345.231" height="11.654" style="fill:#c9d3df;stroke:#205081;stroke-width:5px;"/><circle cx="2077.91" cy="498.841" r="15" style="fill:#c9d3df;stroke:#205081;stroke-width:5px;"/></g><g id="school"><path d="M1998,617.256l-660,0l34.58,-39.971l590.84,0l34.58,39.971Z" style="fill:#56acdf;stroke:#205081;stroke-width:5px;"/><rect x="1360.99" y="617.256" width="614.014" height="187.483" style="fill:#fef7df;"/><rect x="1360.99" y="617.256" width="614.014" height="10" style="fill:#d8cca4;"/><rect x="1360.99" y="617.256" width="614.014" height="187.483" style="fill:none;stroke:#205081;stroke-width:5px;"/><g id="main-building1" serif:id="main building"><rect x="1360.99" y="764.739" width="614.014" height="40" style="fill:#56acdf;"/><clipPath id="_clip4"><rect x="1360.99" y="764.739" width="614.014" height="40"/></clipPath><g clip-path="url(#_clip4)"><rect x="1360.99" y="794.739" width="614.014" height="10" style="fill:#2377cd;"/></g><rect x="1360.99" y="764.739" width="614.014" height="40" style="fill:none;stroke:#205081;stroke-width:5px;"/><rect x="1564.59" y="532.013" width="207.516" height="272.725" style="fill:#fef7df;"/><clipPath id="_clip5"><rect x="1564.59" y="532.013" width="207.516" height="272.725"/></clipPath><g clip-path="url(#_clip5)"><rect x="1564.59" y="532.013" width="207.516" height="10" style="fill:#d8cca4;"/></g><rect x="1564.59" y="532.013" width="207.516" height="272.725" style="fill:none;stroke:#205081;stroke-width:5px;"/><g id="stairs2" serif:id="stairs"><rect x="1612.31" y="792.974" width="111.373" height="11.765" style="fill:#c9d3df;stroke:#205081;stroke-width:5px;"/><rect x="1624.86" y="781.21" width="86.275" height="11.765" style="fill:#c9d3df;stroke:#205081;stroke-width:5px;"/></g><g id="main-door1" serif:id="main door"><rect x="1636.63" y="710.621" width="62.745" height="70.588" style="fill:#74bfec;stroke:#205081;stroke-width:5px;"/><path d="M1668,710.621l0,70.589" style="fill:#74bfec;stroke:#205081;stroke-width:5px;"/><path d="M1660.16,740.425l0,10.981" style="fill:#74bfec;stroke:#205081;stroke-width:5px;"/><path d="M1675.84,740.425l0,10.981" style="fill:#74bfec;stroke:#205081;stroke-width:5px;"/></g><g><g id="window33" serif:id="window"><rect x="1597.85" y="557.962" width="33.395" height="38.961" style="fill:#fff;stroke:#205081;stroke-width:5px;"/><path d="M1597.85,577.442l33.395,0" style="fill:none;stroke:#205081;stroke-width:5px;"/></g><g id="window34" serif:id="window"><rect x="1651.65" y="558.962" width="33.395" height="38.961" style="fill:#fff;stroke:#205081;stroke-width:5px;"/><path d="M1651.65,578.442l33.395,0" style="fill:none;stroke:#205081;stroke-width:5px;"/></g><g id="window35" serif:id="window"><rect x="1705.46" y="558.962" width="33.395" height="38.961" style="fill:#fff;stroke:#205081;stroke-width:5px;"/><path d="M1705.46,578.442l33.395,0" style="fill:none;stroke:#205081;stroke-width:5px;"/></g></g><g><g id="window36" serif:id="window"><rect x="1597.85" y="641.739" width="33.395" height="38.961" style="fill:#fff;stroke:#205081;stroke-width:5px;"/><path d="M1597.85,661.219l33.395,0" style="fill:none;stroke:#205081;stroke-width:5px;"/></g><g id="window37" serif:id="window"><rect x="1705.46" y="642.739" width="33.395" height="38.961" style="fill:#fff;stroke:#205081;stroke-width:5px;"/><path d="M1705.46,662.219l33.395,0" style="fill:none;stroke:#205081;stroke-width:5px;"/></g></g><path d="M1783,520.013c0,-2.207 -1.792,-4 -4,-4l-222,0c-2.208,0 -4,1.793 -4,4l0,8c0,2.208 1.792,4 4,4l222,0c2.208,0 4,-1.792 4,-4l0,-8Z" style="fill:#56acdf;stroke:#205081;stroke-width:5px;"/></g><g id="clock1" serif:id="clock"><ellipse cx="1668.35" cy="656.739" rx="15.017" ry="15" style="fill:#fff;stroke:#205081;stroke-width:5px;"/><path d="M1662.93,656.739l5.422,0" style="fill:none;stroke:#205081;stroke-width:5px;"/><path d="M1668.35,656.739l4.578,-6.137" style="fill:none;stroke:#205081;stroke-width:5px;"/></g><g id="flag1" serif:id="flag"><path d="M1857.53,549.821l-37.586,-34.487l-18.254,19.894l37.586,34.487l18.254,-19.894Z" style="fill:#fff;"/><clipPath id="_clip6"><path d="M1857.53,549.821l-37.586,-34.487l-18.254,19.894l37.586,34.487l18.254,-19.894Z"/></clipPath><g clip-path="url(#_clip6)"><path d="M1833.16,527.461l-13.217,-12.127l-16.945,18.468l13.216,12.127l16.946,-18.468Z" style="fill:#0081d5;"/><path d="M1857.53,549.821l-13.216,-12.127l-16.946,18.468l13.217,12.127l16.945,-18.468Z" style="fill:#d1335b;"/></g><path d="M1857.53,549.821l-37.586,-34.487l-18.254,19.894l37.586,34.487l18.254,-19.894Z" style="fill:none;stroke:#205081;stroke-width:5px;"/><path d="M1819.94,515.334l-47.829,52.127" style="fill:none;stroke:#205081;stroke-width:5px;"/></g><g><g><g id="window38" serif:id="window"><rect x="1393.5" y="703.072" width="33.395" height="38.961" style="fill:#fff;stroke:#205081;stroke-width:5px;"/><path d="M1393.5,722.552l33.395,0" style="fill:none;stroke:#205081;stroke-width:5px;"/></g><g id="window39" serif:id="window"><rect x="1447.3" y="704.072" width="33.395" height="38.961" style="fill:#fff;stroke:#205081;stroke-width:5px;"/><path d="M1447.3,723.552l33.394,0" style="fill:none;stroke:#205081;stroke-width:5px;"/></g><g id="window40" serif:id="window"><rect x="1501.11" y="704.072" width="33.395" height="38.961" style="fill:#fff;stroke:#205081;stroke-width:5px;"/><path d="M1501.11,723.552l33.395,0" style="fill:none;stroke:#205081;stroke-width:5px;"/></g></g><g><g id="window41" serif:id="window"><rect x="1393.5" y="639.962" width="33.395" height="38.961" style="fill:#fff;stroke:#205081;stroke-width:5px;"/><path d="M1393.5,659.442l33.395,0" style="fill:none;stroke:#205081;stroke-width:5px;"/></g><g id="window42" serif:id="window"><rect x="1447.3" y="640.962" width="33.395" height="38.961" style="fill:#fff;stroke:#205081;stroke-width:5px;"/><path d="M1447.3,660.442l33.394,0" style="fill:none;stroke:#205081;stroke-width:5px;"/></g><g id="window43" serif:id="window"><rect x="1501.11" y="640.962" width="33.395" height="38.961" style="fill:#fff;stroke:#205081;stroke-width:5px;"/><path d="M1501.11,660.442l33.395,0" style="fill:none;stroke:#205081;stroke-width:5px;"/></g></g></g><g><g><g id="window44" serif:id="window"><rect x="1801.5" y="703.072" width="33.395" height="38.961" style="fill:#fff;stroke:#205081;stroke-width:5px;"/><path d="M1801.5,722.552l33.395,0" style="fill:none;stroke:#205081;stroke-width:5px;"/></g><g id="window45" serif:id="window"><rect x="1855.3" y="704.072" width="33.395" height="38.961" style="fill:#fff;stroke:#205081;stroke-width:5px;"/><path d="M1855.3,723.552l33.394,0" style="fill:none;stroke:#205081;stroke-width:5px;"/></g><g id="window46" serif:id="window"><rect x="1909.11" y="704.072" width="33.395" height="38.961" style="fill:#fff;stroke:#205081;stroke-width:5px;"/><path d="M1909.11,723.552l33.395,0" style="fill:none;stroke:#205081;stroke-width:5px;"/></g></g><g><g id="window47" serif:id="window"><rect x="1801.5" y="639.962" width="33.395" height="38.961" style="fill:#fff;stroke:#205081;stroke-width:5px;"/><path d="M1801.5,659.442l33.395,0" style="fill:none;stroke:#205081;stroke-width:5px;"/></g><g id="window48" serif:id="window"><rect x="1855.3" y="640.962" width="33.395" height="38.961" style="fill:#fff;stroke:#205081;stroke-width:5px;"/><path d="M1855.3,660.442l33.394,0" style="fill:none;stroke:#205081;stroke-width:5px;"/></g><g id="window49" serif:id="window"><rect x="1909.11" y="640.962" width="33.395" height="38.961" style="fill:#fff;stroke:#205081;stroke-width:5px;"/><path d="M1909.11,660.442l33.395,0" style="fill:none;stroke:#205081;stroke-width:5px;"/></g></g></g></g><g id="bushes1" serif:id="bushes"><path d="M1349.05,783.042l7.57,0c-3.147,0 -5.703,-2.554 -5.703,-5.701c0,-3.147 2.556,-5.701 5.703,-5.702l17.506,0c-3.147,0 -5.703,-2.554 -5.703,-5.701c0,-3.147 2.556,-5.701 5.703,-5.701l13.423,0c3.148,0 5.703,2.554 5.703,5.701c0,3.147 -2.555,5.701 -5.703,5.701l10.341,0c3.147,0.001 5.703,2.555 5.703,5.702c0,3.147 -2.556,5.701 -5.703,5.701l7.57,0c3.148,0 5.703,2.555 5.703,5.702c0,3.146 -2.555,5.701 -5.703,5.701l-7.57,0c3.147,0 5.703,2.555 5.703,5.702c0,3.146 -2.556,5.701 -5.703,5.701l-41.27,0c-3.147,0 -5.703,-2.555 -5.703,-5.701c0,-3.147 2.556,-5.702 5.703,-5.702l-7.57,0c-3.148,0 -5.703,-2.555 -5.703,-5.701c0,-3.147 2.555,-5.702 5.703,-5.702Z" style="fill:#9dbf15;stroke:#205081;stroke-width:5px;"/><path d="M1829.55,783.042l7.57,0c-3.147,0 -5.703,-2.554 -5.703,-5.701c0,-3.147 2.556,-5.701 5.703,-5.702l17.506,0c-3.147,0 -5.703,-2.554 -5.703,-5.701c0,-3.147 2.556,-5.701 5.703,-5.701l13.423,0c3.148,0 5.703,2.554 5.703,5.701c0,3.147 -2.555,5.701 -5.703,5.701l10.341,0c3.147,0.001 5.703,2.555 5.703,5.702c0,3.147 -2.556,5.701 -5.703,5.701l7.57,0c3.148,0 5.703,2.555 5.703,5.702c0,3.146 -2.555,5.701 -5.703,5.701l-7.57,0c3.147,0 5.703,2.555 5.703,5.702c0,3.146 -2.556,5.701 -5.703,5.701l-41.27,0c-3.147,0 -5.703,-2.555 -5.703,-5.701c0,-3.147 2.556,-5.702 5.703,-5.702l-7.57,0c-3.148,0 -5.703,-2.555 -5.703,-5.701c0,-3.147 2.555,-5.702 5.703,-5.702Z" style="fill:#9dbf15;stroke:#205081;stroke-width:5px;"/><path d="M1453.05,783.042l7.57,0c-3.147,0 -5.703,-2.554 -5.703,-5.701c0,-3.147 2.556,-5.701 5.703,-5.702l17.506,0c-3.147,0 -5.703,-2.554 -5.703,-5.701c0,-3.147 2.556,-5.701 5.703,-5.701l13.423,0c3.148,0 5.703,2.554 5.703,5.701c0,3.147 -2.555,5.701 -5.703,5.701l10.341,0c3.147,0.001 5.703,2.555 5.703,5.702c0,3.147 -2.556,5.701 -5.703,5.701l7.57,0c3.148,0 5.703,2.555 5.703,5.702c0,3.146 -2.555,5.701 -5.703,5.701l-7.57,0c3.147,0 5.703,2.555 5.703,5.702c0,3.146 -2.556,5.701 -5.703,5.701l-41.27,0c-3.147,0 -5.703,-2.555 -5.703,-5.701c0,-3.147 2.556,-5.702 5.703,-5.702l-7.57,0c-3.148,0 -5.703,-2.555 -5.703,-5.701c0,-3.147 2.555,-5.702 5.703,-5.702Z" style="fill:#9dbf15;stroke:#205081;stroke-width:5px;"/><path d="M1933.55,783.042l7.57,0c-3.147,0 -5.703,-2.554 -5.703,-5.701c0,-3.147 2.556,-5.701 5.703,-5.702l17.506,0c-3.147,0 -5.703,-2.554 -5.703,-5.701c0,-3.147 2.556,-5.701 5.703,-5.701l13.423,0c3.148,0 5.703,2.554 5.703,5.701c0,3.147 -2.555,5.701 -5.703,5.701l10.341,0c3.147,0.001 5.703,2.555 5.703,5.702c0,3.147 -2.556,5.701 -5.703,5.701l7.57,0c3.148,0 5.703,2.555 5.703,5.702c0,3.146 -2.555,5.701 -5.703,5.701l-7.57,0c3.147,0 5.703,2.555 5.703,5.702c0,3.146 -2.556,5.701 -5.703,5.701l-41.27,0c-3.147,0 -5.703,-2.555 -5.703,-5.701c0,-3.147 2.556,-5.702 5.703,-5.702l-7.57,0c-3.148,0 -5.703,-2.555 -5.703,-5.701c0,-3.147 2.555,-5.702 5.703,-5.702Z" style="fill:#9dbf15;stroke:#205081;stroke-width:5px;"/><g><path d="M2057.75,661.014c0,0 -41,60.985 -41,87.122c0,6.869 18.371,12.446 41,12.446c22.629,0 41,-5.577 41,-12.446c0,-26.137 -41,-87.122 -41,-87.122Z" style="fill:#9dbf15;stroke:#205081;stroke-width:5px;"/><path d="M2039.38,732.843l18.327,12.579l0,-21.5l16.06,-13.124" style="fill:none;stroke:#205081;stroke-width:5px;"/><path d="M2057.7,805.848c0.108,-0.374 0,-105.259 0,-105.259" style="fill:none;stroke:#205081;stroke-width:5px;"/></g><g><path d="M1278.25,661.014c0,0 -41,60.985 -41,87.122c0,6.869 18.371,12.446 41,12.446c22.629,0 41,-5.577 41,-12.446c0,-26.137 -41,-87.122 -41,-87.122Z" style="fill:#9dbf15;stroke:#205081;stroke-width:5px;"/><path d="M1259.88,732.843l18.327,12.579l0,-21.5l16.06,-13.124" style="fill:none;stroke:#205081;stroke-width:5px;"/><path d="M1278.2,805.848c0.108,-0.374 0,-105.259 0,-105.259" style="fill:none;stroke:#205081;stroke-width:5px;"/></g></g><g id="bushes2" serif:id="bushes"><g><path d="M694.5,655.878c0,0 -41,60.985 -41,87.122c0,6.869 18.371,12.445 41,12.445c22.629,0 41,-5.576 41,-12.445c0,-26.137 -41,-87.122 -41,-87.122Z" style="fill:#9dbf15;stroke:#205081;stroke-width:5px;"/><path d="M676.125,727.707l18.327,12.579l0,-21.5l16.06,-13.124" style="fill:none;stroke:#205081;stroke-width:5px;"/><path d="M694.452,800.712c0.108,-0.374 0,-105.26 0,-105.26" style="fill:none;stroke:#205081;stroke-width:5px;"/></g><g><path d="M135,655.878c0,0 -41,60.985 -41,87.122c0,6.869 18.371,12.445 41,12.445c22.629,0 41,-5.576 41,-12.445c0,-26.137 -41,-87.122 -41,-87.122Z" style="fill:#9dbf15;stroke:#205081;stroke-width:5px;"/><path d="M116.625,727.707l18.327,12.579l0,-21.5l16.06,-13.124" style="fill:none;stroke:#205081;stroke-width:5px;"/><path d="M134.952,800.712c0.108,-0.374 0,-105.26 0,-105.26" style="fill:none;stroke:#205081;stroke-width:5px;"/></g></g></svg>
