<?xml version="1.0" encoding="UTF-8" standalone="no"?><!DOCTYPE svg PUBLIC "-//W3C//DTD SVG 1.1//EN" "http://www.w3.org/Graphics/SVG/1.1/DTD/svg11.dtd"><svg width="100%" height="100%" viewBox="0 0 101 18" version="1.1" xmlns="http://www.w3.org/2000/svg" xmlns:xlink="http://www.w3.org/1999/xlink" xml:space="preserve" xmlns:serif="http://www.serif.com/" style="fill-rule:evenodd;clip-rule:evenodd;stroke-linejoin:round;stroke-miterlimit:1.41421;"><g><path d="M0.937,11.726c-0.511,0 -0.937,0.401 -0.937,0.914c0,0.465 0.426,0.866 0.92,0.866c0.528,0 0.972,-0.385 0.972,-0.866c0,-0.497 -0.444,-0.914 -0.955,-0.914Z" style="fill:#373c42;fill-rule:nonzero;"/><path d="M13.974,4.443l0,8.887l-2.079,0l0,-1.155c-0.75,0.802 -1.625,1.251 -2.625,1.347c-0.159,0.011 -0.329,0.016 -0.511,0.016c-1.488,0 -2.687,-0.497 -3.596,-1.491c-0.772,-0.856 -1.158,-1.899 -1.158,-3.128c0,-1.476 0.522,-2.663 1.567,-3.561c0.887,-0.749 1.966,-1.123 3.238,-1.123c1.239,0 2.221,0.406 2.948,1.219c0.046,0.053 0.091,0.112 0.137,0.176l0,-1.187l2.079,0Zm-4.925,1.749c-1,0 -1.755,0.374 -2.267,1.123c-0.329,0.47 -0.494,1.021 -0.494,1.652c0,0.994 0.398,1.727 1.193,2.197c0.454,0.278 0.988,0.417 1.602,0.417c0.897,0 1.585,-0.267 2.062,-0.802c0.42,-0.534 0.647,-1.144 0.682,-1.828c0,-1.016 -0.387,-1.781 -1.159,-2.294c-0.466,-0.31 -1.006,-0.465 -1.619,-0.465Z" style="fill:#373c42;fill-rule:nonzero;"/><path d="M16.513,16.297l0,-11.854l2.079,0l0,1.043c0.761,-0.834 1.795,-1.251 3.101,-1.251c1.477,0 2.664,0.497 3.562,1.492c0.761,0.855 1.142,1.898 1.142,3.128c0,1.454 -0.512,2.63 -1.534,3.528l-0.528,0.417c-0.784,0.492 -1.67,0.738 -2.659,0.738c-1.113,0 -2.079,-0.347 -2.897,-1.042l0,3.801l-2.266,0Zm4.891,-10.105c-0.943,0 -1.682,0.353 -2.216,1.059c-0.363,0.47 -0.545,1.01 -0.545,1.62c0,0.941 0.369,1.673 1.108,2.197c0.488,0.342 1.051,0.513 1.687,0.513c0.897,0 1.607,-0.347 2.13,-1.042c0.363,-0.471 0.545,-1.016 0.545,-1.636c0,-0.931 -0.363,-1.663 -1.09,-2.198c-0.466,-0.342 -1.006,-0.513 -1.619,-0.513Z" style="fill:#373c42;fill-rule:nonzero;"/><path d="M28.612,13.33l0,-8.887l2.267,0l0,8.887l-2.267,0Zm0,-9.849l0,-2.005l2.267,0l0,2.005l-2.267,0Z" style="fill:#373c42;fill-rule:nonzero;"/><path d="M34.764,11.726c-0.511,0 -0.937,0.401 -0.937,0.914c0,0.465 0.426,0.866 0.92,0.866c0.528,0 0.971,-0.385 0.971,-0.866c0,-0.497 -0.443,-0.914 -0.954,-0.914Z" style="fill:#373c42;fill-rule:nonzero;"/><path d="M45.994,4.443l2.164,0l0,7.203c0,1.625 -0.318,2.828 -0.954,3.609c-0.909,1.08 -2.221,1.62 -3.937,1.62c-1.806,0 -3.192,-0.567 -4.158,-1.701c-0.284,-0.331 -0.517,-0.705 -0.698,-1.122l2.573,0c0.545,0.566 1.198,0.877 1.96,0.93c0.125,0.011 0.261,0.016 0.409,0.016c1.681,0 2.561,-0.946 2.641,-2.839c-0.727,0.802 -1.568,1.251 -2.522,1.347c-0.182,0.022 -0.375,0.032 -0.579,0.032c-1.455,0 -2.625,-0.508 -3.511,-1.523c-0.75,-0.867 -1.125,-1.931 -1.125,-3.193c0,-1.422 0.506,-2.577 1.517,-3.464c0.863,-0.749 1.909,-1.123 3.136,-1.123c1.363,0 2.391,0.444 3.084,1.331l0,-1.123Zm-2.829,1.749c-1.034,0 -1.783,0.401 -2.249,1.203c-0.25,0.438 -0.375,0.946 -0.375,1.524c0,1.101 0.42,1.882 1.261,2.342c0.398,0.213 0.863,0.32 1.397,0.32c1.068,0 1.841,-0.395 2.318,-1.187c0.25,-0.417 0.375,-0.909 0.375,-1.475c0,-1.048 -0.398,-1.818 -1.193,-2.31c-0.386,-0.246 -0.829,-0.385 -1.329,-0.417c-0.069,0 -0.137,0 -0.205,0Z" style="fill:#373c42;fill-rule:nonzero;"/><path d="M55.35,4.235c1.476,0 2.703,0.486 3.68,1.46c0.909,0.898 1.364,1.983 1.364,3.256c0,1.251 -0.5,2.331 -1.5,3.24c-0.988,0.898 -2.164,1.347 -3.527,1.347c-1.398,0 -2.591,-0.465 -3.579,-1.395c-0.954,-0.909 -1.431,-1.995 -1.431,-3.256c0,-1.294 0.499,-2.396 1.499,-3.305c0.977,-0.898 2.142,-1.347 3.494,-1.347Zm0.017,1.957c-0.852,0 -1.557,0.326 -2.113,0.978c-0.409,0.492 -0.614,1.054 -0.614,1.685c0,0.909 0.358,1.636 1.074,2.181c0.488,0.364 1.045,0.545 1.67,0.545c0.874,0 1.584,-0.336 2.13,-1.01c0.397,-0.492 0.596,-1.053 0.596,-1.684c0,-0.867 -0.346,-1.572 -1.039,-2.118c-0.5,-0.385 -1.068,-0.577 -1.704,-0.577Z" style="fill:#373c42;fill-rule:nonzero;"/><path d="M70.925,4.443l0,8.887l-2.096,0l0,-0.85c-0.659,0.609 -1.375,0.951 -2.147,1.026l-0.562,0.032c-1.273,0 -2.233,-0.438 -2.88,-1.315c-0.432,-0.599 -0.665,-1.412 -0.699,-2.438c-0.011,-0.171 -0.017,-0.364 -0.017,-0.578l0,-4.764l2.266,0l0,4.347c0,1.123 0.154,1.866 0.46,2.23c0.296,0.374 0.739,0.561 1.33,0.561c0.806,0 1.38,-0.272 1.721,-0.818c0.238,-0.342 0.358,-1.053 0.358,-2.133l0,-4.187l2.266,0Z" style="fill:#373c42;fill-rule:nonzero;"/><path d="M76.498,13.33l-3.801,-8.887l2.523,0l2.181,5.887l2.147,-5.887l2.556,0l-3.8,8.887l-1.806,0Z" style="fill:#373c42;fill-rule:nonzero;"/><path d="M83.376,11.726c-0.481,0 -0.882,0.401 -0.882,0.914c0,0.465 0.401,0.866 0.866,0.866c0.497,0 0.914,-0.385 0.914,-0.866c0,-0.497 -0.417,-0.914 -0.898,-0.914Z" style="fill:#373c42;fill-rule:nonzero;"/><path d="M87.21,5.53l1.766,0l-1.785,8.266c-0.466,2.134 -1.106,3.201 -1.941,3.201c-0.233,0 -0.388,-0.136 -0.388,-0.33c0,-0.058 0.02,-0.097 0.078,-0.194c0.077,-0.136 0.097,-0.213 0.097,-0.33c0,-0.427 -0.349,-0.756 -0.776,-0.756c-0.408,0 -0.718,0.368 -0.718,0.834c0,0.66 0.679,1.183 1.533,1.183c1.765,0 3.143,-1.94 3.997,-5.568l1.455,-6.306l2.154,0l0.116,-0.621l-2.115,0c0.582,-3.105 1.339,-4.482 2.425,-4.482c0.272,0 0.427,0.097 0.427,0.252c0,0.039 -0.019,0.097 -0.077,0.194c-0.097,0.155 -0.117,0.252 -0.117,0.408c0,0.465 0.291,0.776 0.718,0.776c0.446,0 0.835,-0.369 0.835,-0.796c0,-0.718 -0.718,-1.261 -1.689,-1.261c-0.95,0 -1.726,0.427 -2.444,1.339c-0.582,0.776 -0.99,1.668 -1.591,3.57l-1.824,0l-0.136,0.621Z" style="fill:#373c42;fill-rule:nonzero;"/><path d="M95.126,13.33c1.068,-3.396 1.397,-4.191 2.29,-5.685c0.679,-1.106 1.222,-1.708 1.552,-1.708c0.136,0 0.233,0.078 0.33,0.272c0.155,0.33 0.31,0.427 0.699,0.427c0.582,0 0.911,-0.349 0.911,-0.97c0,-0.621 -0.368,-1.009 -0.911,-1.009c-0.447,0 -0.99,0.291 -1.495,0.834c-0.814,0.815 -1.629,1.999 -1.94,2.755l-0.291,0.718l1.087,-4.268l-0.058,-0.039c-1.417,0.252 -1.63,0.291 -3.047,0.524l0,0.329c0.427,-0.077 0.505,-0.097 0.66,-0.097c0.427,0 0.679,0.194 0.679,0.544c0,0.252 -0.155,1.047 -0.31,1.63l-1.65,5.743l1.494,0Z" style="fill:#373c42;fill-rule:nonzero;"/></g></svg>